G04 ================== begin FILE IDENTIFICATION RECORD ==================*
G04 Layout Name:  E:/Automated_Caller/Footprint/gsm.brd*
G04 Film Name:    BOT_LAYER*
G04 File Format:  Gerber RS274X*
G04 File Origin:  Cadence Allegro 23.1-S001*
G04 Origin Date:  Sun Mar 23 12:34:25 2025*
G04 *
G04 Layer:  VIA CLASS/BOTTOM*
G04 Layer:  PIN/BOTTOM*
G04 Layer:  ETCH/BOTTOM*
G04 Layer:  BOARD GEOMETRY/DESIGN_OUTLINE*
G04 *
G04 Offset:    (0.0000 0.0000)*
G04 Mirror:    No*
G04 Mode:      Positive*
G04 Rotation:  0*
G04 FullContactRelief:  No*
G04 UndefLineWidth:     0.1000*
G04 ================== end FILE IDENTIFICATION RECORD ====================*
%FSLAX25Y25*MOMM*%
%IR0*IPPOS*OFA0.00000B0.00000*MIA0B0*SFA1.00000B1.00000*%
%ADD23R,10.2X8.3*%
%ADD28R,.9X2.7*%
%ADD15O,3.X2.*%
%ADD10O,2.X3.*%
%ADD33O,2.X1.5*%
%ADD20O,1.5X2.*%
%ADD32O,2.X1.5*%
%ADD16O,1.5X2.*%
%ADD24R,1.1X4.1*%
%ADD34R,2.X1.6*%
%ADD35R,1.6X2.*%
%ADD25R,1.7X2.1*%
%ADD19R,2.1X1.7*%
%ADD18C,1.1*%
%ADD30R,3.3X2.8*%
%ADD31C,3.0001*%
%ADD22C,1.3*%
%ADD21C,1.4*%
%ADD14C,5.*%
%ADD26C,1.6*%
%ADD17C,3.5*%
%ADD13C,1.8*%
%ADD11R,2.X2.*%
%ADD29R,1.5X1.5*%
%ADD27R,1.6X1.6*%
%ADD12R,1.8X1.8*%
%ADD36C,.4*%
%ADD37C,1.*%
%ADD38C,.1*%
G75*
%LPD*%
G75*
G54D10*
X170000Y-5500000D03*
X770000D03*
G54D11*
X203000Y-4630000D03*
X4700000Y-1318500D03*
X7690000Y-890000D03*
G54D20*
X1211000Y-3818000D03*
X1719000D03*
X1465000D03*
X1973000D03*
X2481000D03*
X2227000D03*
G54D12*
X260000Y-3086000D03*
X1685000Y-5600000D03*
X3175000Y-4830000D03*
X3790000Y-2139000D03*
G54D21*
X1220000Y-2280000D03*
X3059000Y-2139000D03*
X3270000Y-6170000D03*
X3450000Y-5010000D03*
X4510000Y-5600000D03*
X6630000Y-5840000D03*
X7010000Y-3400000D03*
G54D30*
X3420000Y-6760000D03*
G54D13*
X260000Y-2832000D03*
Y-2578000D03*
Y-2324000D03*
Y-1816000D03*
Y-2070000D03*
Y-1562000D03*
Y-1054000D03*
Y-1308000D03*
X1135000Y-5600000D03*
X3725000Y-4830000D03*
X3787000Y-2901000D03*
Y-2647000D03*
Y-2393000D03*
G54D22*
X1595000Y-995000D03*
X2395000D03*
G54D31*
X4742000Y-5217500D03*
Y-522500D03*
X7193000Y-5217500D03*
Y-522500D03*
G54D14*
X260000Y-260000D03*
X8240000Y-6740000D03*
X8150000Y-5400000D03*
Y-1700000D03*
X8240000Y-260000D03*
G54D32*
X4700000Y-4874500D03*
Y-4620500D03*
Y-4366500D03*
Y-4112500D03*
Y-3858500D03*
Y-3604500D03*
Y-3350500D03*
Y-3096500D03*
Y-2842500D03*
Y-2588500D03*
Y-2334500D03*
Y-2080500D03*
Y-1826500D03*
Y-1572500D03*
X7240000Y-4620500D03*
Y-4874500D03*
Y-4366500D03*
Y-4112500D03*
Y-3604500D03*
Y-3858500D03*
Y-3350500D03*
Y-2842500D03*
Y-3096500D03*
Y-2588500D03*
Y-2334500D03*
Y-1826500D03*
Y-2080500D03*
Y-1572500D03*
Y-1318500D03*
G54D23*
X2380000Y-6542210D03*
G54D24*
X2040000Y-5497000D03*
X2380000D03*
X2210000D03*
X2720000D03*
X2550000D03*
G54D33*
X4380000Y-4616000D03*
Y-4362000D03*
Y-4108000D03*
Y-3600000D03*
Y-3854000D03*
Y-3346000D03*
Y-2838000D03*
Y-3092000D03*
Y-2584000D03*
Y-2330000D03*
Y-1822000D03*
Y-2076000D03*
Y-1568000D03*
Y-1314000D03*
X7570000Y-4616000D03*
Y-4362000D03*
Y-4108000D03*
Y-3600000D03*
Y-3854000D03*
Y-3346000D03*
Y-2838000D03*
Y-3092000D03*
Y-2584000D03*
Y-2330000D03*
Y-1822000D03*
Y-2076000D03*
Y-1568000D03*
Y-1314000D03*
G54D15*
X470000Y-5970000D03*
G54D25*
X2000000Y-5001500D03*
Y-4618500D03*
G54D34*
X4380000Y-4870000D03*
X7570000D03*
G54D16*
X457000Y-4630000D03*
X8044000Y-4064000D03*
Y-3810000D03*
Y-3556000D03*
Y-3302000D03*
X7960000Y-890000D03*
X8230000D03*
G54D17*
X830000Y-4010000D03*
Y-210000D03*
X2930000Y-4010000D03*
Y-210000D03*
G54D26*
X2355000Y-4870000D03*
X3980000Y-5590000D03*
G54D35*
X8044000Y-3048000D03*
G54D36*
G01X4700000Y-2080500D02*
X4832700D01*
X4922110Y-2169910D01*
Y-2324180D01*
X4786790Y-2459500D01*
X4467290D01*
X4466790Y-2459000D01*
X4259000D01*
X4000000Y-2200000D01*
Y-2060000D01*
X3840000Y-1900000D01*
X430000D01*
X260000Y-2070000D01*
G01Y-1816000D02*
X339700Y-1736300D01*
X3866300D01*
X4150000Y-2020000D01*
Y-2135000D01*
X4345000Y-2330000D01*
X4380000D01*
G01X260000Y-1562000D02*
X3962000D01*
X4222000Y-1822000D01*
X4380000D01*
G01X4930000Y-5690000D02*
Y-5777700D01*
X3747700Y-6960000D01*
X3230140D01*
X3060000Y-6789860D01*
Y-6040000D01*
X2980000Y-5960000D01*
X1772300D01*
X1050000Y-6682300D01*
Y-6770000D01*
G01X4380000Y-3092000D02*
X1804300D01*
X1211000Y-3685300D01*
Y-3818000D01*
G01X4380000Y-4870000D02*
X4135570D01*
X3595570Y-4330000D01*
X2090000D01*
X1719000Y-3959000D01*
Y-3818000D01*
G01X4380000Y-3346000D02*
X1804300D01*
X1465000Y-3685300D01*
Y-3818000D01*
G01X4380000Y-3600000D02*
X2030000D01*
X1973000Y-3657000D01*
Y-3818000D01*
G01X4380000Y-4870000D02*
X4562800D01*
X4567300Y-4874500D01*
X4700000D01*
G01X4380000Y-4362000D02*
X4562800D01*
X4567300Y-4366500D01*
X4700000D01*
G01X4380000Y-4108000D02*
X4562800D01*
X4567300Y-4112500D01*
X4700000D01*
G01X4380000Y-3600000D02*
X4562800D01*
X4567300Y-3604500D01*
X4700000D01*
G01X4380000Y-3346000D02*
X4562800D01*
X4567300Y-3350500D01*
X4700000D01*
G01X4380000Y-3092000D02*
X4562800D01*
X4567300Y-3096500D01*
X4700000D01*
G01X4380000Y-2584000D02*
X4562800D01*
X4567300Y-2588500D01*
X4700000D01*
G01X4380000Y-2838000D02*
X4562800D01*
X4567300Y-2842500D01*
X4700000D01*
G01X4380000Y-2330000D02*
X4562800D01*
X4567300Y-2334500D01*
X4700000D01*
G01X4380000Y-1822000D02*
X4562800D01*
X4567300Y-1826500D01*
X4700000D01*
G01X4380000Y-2076000D02*
X4562800D01*
X4567300Y-2080500D01*
X4700000D01*
G01X4970000Y-5020000D02*
Y-4802300D01*
X6672300Y-3100000D01*
X6775000D01*
G01X4700000Y-2588500D02*
X5700000D01*
X5841500Y-2730000D01*
X7150710D01*
X7163210Y-2717500D01*
X7488710D01*
X7493210Y-2713000D01*
X7646790D01*
X7663790Y-2730000D01*
X8080000D01*
X8200000Y-2850000D01*
Y-3262000D01*
X8160000Y-3302000D01*
X8044000D01*
G01X4700000Y-2842500D02*
X5700000D01*
X5817500Y-2960000D01*
X7155710D01*
X7163210Y-2967500D01*
X7316790D01*
X7321290Y-2963000D01*
X7823000D01*
X7908000Y-3048000D01*
X8044000D01*
G01X7005000Y-3100000D02*
X7236500D01*
X7240000Y-3096500D01*
G01Y-4874500D02*
X7432800D01*
X7437300Y-4870000D01*
X7570000D01*
G01X7240000Y-4620500D02*
X7432800D01*
X7437300Y-4616000D01*
X7570000D01*
G01X7240000Y-4366500D02*
X7432800D01*
X7437300Y-4362000D01*
X7570000D01*
G01X7240000Y-4112500D02*
X7432800D01*
X7437300Y-4108000D01*
X7570000D01*
G01X7240000Y-3604500D02*
X7432800D01*
X7437300Y-3600000D01*
X7570000D01*
G01X7240000Y-3858500D02*
X7432800D01*
X7437300Y-3854000D01*
X7570000D01*
G01X7240000Y-3350500D02*
X7432800D01*
X7437300Y-3346000D01*
X7570000D01*
G01X7240000Y-3096500D02*
X7432800D01*
X7437300Y-3092000D01*
X7570000D01*
G01X7240000Y-2588500D02*
X7432800D01*
X7437300Y-2584000D01*
X7570000D01*
G01X7240000Y-2842500D02*
X7432800D01*
X7437300Y-2838000D01*
X7570000D01*
G01X7240000Y-2334500D02*
X7432800D01*
X7437300Y-2330000D01*
X7570000D01*
G01X7240000Y-1826500D02*
X7432800D01*
X7437300Y-1822000D01*
X7570000D01*
G01Y-2076000D02*
X7377200D01*
X7372700Y-2080500D01*
X7240000D01*
G54D27*
X2605000Y-4870000D03*
X3680000Y-5590000D03*
X6775000Y-3100000D03*
X7005000D03*
G54D18*
X1050000Y-6770000D03*
X4930000Y-5690000D03*
X4970000Y-5020000D03*
G54D37*
G01X170000Y-5500000D02*
Y-5770330D01*
X369670Y-5970000D01*
X470000D01*
G01X203000Y-4630000D02*
Y-5116480D01*
X170000Y-5149480D01*
Y-5500000D01*
G01X2000000Y-4618500D02*
X1180780D01*
X1002280Y-4440000D01*
X388640D01*
X203000Y-4625640D01*
Y-4630000D01*
G01X470000Y-5970000D02*
X765000D01*
X1135000Y-5600000D01*
G01X770000Y-5500000D02*
X940800D01*
X1110800Y-5330000D01*
X1278500D01*
G01X1220000Y-2280000D02*
X1370000Y-2430000D01*
X2768000D01*
X3059000Y-2139000D01*
G01X1685000Y-5600000D02*
X1670000Y-5585000D01*
Y-5338500D01*
X1661500Y-5330000D01*
G01X1685000Y-5600000D02*
X1828270Y-5743270D01*
X1943590D01*
X2040000Y-5646860D01*
Y-5497000D01*
G01X2210000D02*
Y-5231500D01*
X2000000Y-5021500D01*
Y-5001500D01*
G01D02*
X2223500D01*
X2355000Y-4870000D01*
G01X2000000Y-4618500D02*
X3513500D01*
X3725000Y-4830000D01*
G01X2380000Y-5497000D02*
Y-5708280D01*
X2460650Y-5788930D01*
X2639350D01*
X2720000Y-5708280D01*
Y-5497000D01*
G01D02*
X2956800D01*
X3039800Y-5580000D01*
X3175000D01*
G01X2550000Y-5497000D02*
Y-5072700D01*
X2605000Y-5017700D01*
Y-4870000D01*
G01X3175000Y-4830000D02*
X2792700D01*
X2752700Y-4870000D01*
X2605000D01*
G01X3181000Y-5910000D02*
X3270000Y-5999000D01*
Y-6170000D01*
G01X3181000Y-5910000D02*
Y-5586000D01*
X3175000Y-5580000D01*
G01X3980000Y-5590000D02*
X3805000Y-5415000D01*
X3297720D01*
X3175000Y-5537720D01*
Y-5580000D01*
G01X4193010Y-6000000D02*
Y-5341000D01*
X4042010Y-5190000D01*
X3275000D01*
X3175000Y-5090000D01*
Y-4830000D01*
G01X3790000Y-2139000D02*
X3059000D01*
G01X3420000Y-6760000D02*
Y-5910000D01*
G01D02*
Y-5595000D01*
X3405000Y-5580000D01*
G01D02*
X3670000D01*
X3680000Y-5590000D01*
G01X3450000Y-5010000D02*
X3582700D01*
X3612700Y-5040000D01*
X4210000D01*
X4510000Y-5340000D01*
Y-5600000D01*
G01X3659000Y-5910000D02*
X3766700D01*
X3856700Y-6000000D01*
X4193010D01*
G01X7010000Y-3400000D02*
Y-5061060D01*
X6910000Y-5161060D01*
Y-5420000D01*
X6898000Y-5432000D01*
Y-5438220D01*
X6868720Y-5467500D01*
X6862500D01*
X6820000Y-5510000D01*
X4860010D01*
X4370010Y-6000000D01*
X4193010D01*
G01X4380000Y-1568000D02*
X4695500D01*
X4700000Y-1572500D01*
G01Y-1318500D02*
X4384500D01*
X4380000Y-1314000D01*
G01X8044000Y-4064000D02*
Y-5025140D01*
X7229140Y-5840000D01*
X6630000D01*
G01X7570000Y-1568000D02*
X7407200D01*
X7402700Y-1572500D01*
X7240000D01*
G01Y-1318500D02*
X7402800D01*
X7407300Y-1314000D01*
X7570000D01*
G01X8044000Y-3810000D02*
X8171700D01*
X8360000Y-3621700D01*
Y-2840000D01*
X7760000Y-2240000D01*
Y-1723000D01*
X7605000Y-1568000D01*
X7570000D01*
G01X7960000Y-890000D02*
Y-947280D01*
X7693840Y-1213440D01*
Y-1220160D01*
X7600000Y-1314000D01*
X7570000D01*
G54D19*
X1278500Y-5330000D03*
X1661500D03*
G54D28*
X3181000Y-5910000D03*
X3420000D03*
X3659000D03*
G54D38*
G01X8500000Y-7000000D02*
Y0D01*
X0D01*
Y-7000000D01*
X8500000D01*
G54D29*
X3175000Y-5580000D03*
X3405000D03*
M02*
