M48
METRIC
T01C.4
T02C1.
T03C1.02
T04C1.1
T05C1.2
T06C2.5
T07C2.6
T08C3.
T09C4.
T10C1.
T11C3.
;LEADER: 12 
;HEADER: 
;CODE  : ASCII 
;FILE  : gsm-bl-1-2.drl for  ... layers 1 and 2
;DESIGN: gsm.brd
;T01 Holesize 1. = 0.400000 Tolerance = +0.000000/-0.000000 PLATED MM Quantity = 3
;T02 Holesize 2. = 1.000000 Tolerance = +0.000000/-0.000000 PLATED MM Quantity = 16
;T03 Holesize 3. = 1.020000 Tolerance = +0.000000/-0.000000 PLATED MM Quantity = 1
;T04 Holesize 4. = 1.100000 Tolerance = +0.000000/-0.000000 PLATED MM Quantity = 29
;T05 Holesize 5. = 1.200000 Tolerance = +0.000000/-0.000000 PLATED MM Quantity = 58
;T06 Holesize 6. = 2.500000 Tolerance = +0.000000/-0.000000 PLATED MM Quantity = 5
;T07 Holesize 7. = 2.600000 Tolerance = +0.000000/-0.000000 PLATED MM Quantity = 2
;T08 Holesize 8. = 3.000000 Tolerance = +0.000000/-0.000000 PLATED MM Quantity = 3
;T09 Holesize 9. = 4.000000 Tolerance = +0.000000/-0.000000 PLATED MM Quantity = 2
;T10 Holesize 10. = 1.000000 Tolerance = +0.000000/-0.000000 NON_PLATED MM Quantity = 2
;T11 Holesize 11. = 3.000000 Tolerance = +0.000000/-0.000000 NON_PLATED MM Quantity = 4
%
G90
T01
X049700Y-054100
X049700Y-057200
X010150Y-067550
T02
X070100Y-034000
X045100Y-056000
X066300Y-058400
X033950Y-049850
X032700Y-061700
X030590Y-021390
X012200Y-022800
X036800Y-055900
X039800Y-055900
X016850Y-056000
X011350Y-056000
X031750Y-048300
X037250Y-048300
X037870Y-023930
R02Y-002540
T03
X047000Y-013185
T04
R14Y-002540
X072400Y-048745
R14Y002540
T05
X002030Y-046300
X004570Y-046300
X043800Y-048700
R14Y002540
X075700Y-048700
R14Y002540
X076900Y-008900
R02X002700
X012110Y-038180
R05X002540
X080440Y-030480
R04Y-002540
X037900Y-021390
X002600Y-030860
R08Y002540
X023550Y-048700
X026050Y-048700
T06
X008300Y-002100
X029300Y-002100
X029300Y-040100
X008300Y-040100
X004700Y-059700
T07
X007700Y-055000
X001700Y-055000
T08
X082400Y-067400
X082400Y-002600
X002600Y-002600
T09
X081500Y-017000
X081500Y-054000
T10
X023950Y-009950
X015950Y-009950
T11
X047420Y-052175
X071930Y-052175
X071930Y-005225
X047420Y-005225
M30
