G04 ================== begin FILE IDENTIFICATION RECORD ==================*
G04 Layout Name:  E:/Automated_Caller/Footprint/gsm.brd*
G04 Film Name:    SILK_TOP*
G04 File Format:  Gerber RS274X*
G04 File Origin:  Cadence Allegro 23.1-S001*
G04 Origin Date:  Sun Mar 23 12:34:25 2025*
G04 *
G04 Layer:  REF DES/SILKSCREEN_TOP*
G04 Layer:  PACKAGE GEOMETRY/SILKSCREEN_TOP*
G04 Layer:  BOARD GEOMETRY/SILKSCREEN_TOP*
G04 Layer:  BOARD GEOMETRY/DESIGN_OUTLINE*
G04 *
G04 Offset:    (0.0000 0.0000)*
G04 Mirror:    No*
G04 Mode:      Positive*
G04 Rotation:  0*
G04 FullContactRelief:  No*
G04 UndefLineWidth:     0.1000*
G04 ================== end FILE IDENTIFICATION RECORD ====================*
%FSLAX25Y25*MOMM*%
%IR0*IPPOS*OFA0.00000B0.00000*MIA0B0*SFA1.00000B1.00000*%
%ADD10C,.1*%
%ADD11C,.2*%
%ADD12C,.3*%
%ADD13C,.127*%
%ADD14C,.1524*%
G75*
%LPD*%
G75*
G54D10*
G01X630000Y-10000D02*
Y-4210000D01*
X3130000D01*
Y-10000D01*
X630000D01*
G01X8500000Y-7000000D02*
Y0D01*
X0D01*
Y-7000000D01*
X8500000D01*
G01X237730Y-5789390D02*
X144600Y-5718610D01*
G01X127670Y-5754000D02*
X254670D01*
G01X237730Y-5718610D02*
X144600Y-5789390D01*
G01X191170Y-5802260D02*
Y-5705740D01*
G01X182700Y-4520000D02*
G03I-12700J0D01*
G01X399700Y-927000D02*
X120300D01*
Y-3213000D01*
X399700D01*
Y-927000D01*
G01X808100Y-5661710D02*
X820800Y-5653670D01*
X829270Y-5644020D01*
X833500Y-5632760D01*
X829270Y-5619890D01*
X820800Y-5610240D01*
X808100Y-5600580D01*
X791170Y-5597370D01*
X706500D01*
G01X833500Y-5500000D02*
X706500D01*
X731900Y-5519300D01*
G01X833500D02*
Y-5480700D01*
G01Y-5370460D02*
X831380Y-5359200D01*
X825040Y-5346330D01*
X814450Y-5338290D01*
X799630Y-5335070D01*
X784820Y-5338290D01*
X772120Y-5347940D01*
X765770Y-5362420D01*
Y-5378500D01*
X761530Y-5388160D01*
X750950Y-5396200D01*
X736130Y-5399420D01*
X721320Y-5394590D01*
X710730Y-5383330D01*
X706500Y-5370460D01*
X710730Y-5357590D01*
X721320Y-5346330D01*
X736130Y-5341500D01*
X750950Y-5344720D01*
X761530Y-5352760D01*
X765770Y-5362420D01*
Y-5378500D01*
X772120Y-5392980D01*
X784820Y-5402630D01*
X799630Y-5405850D01*
X814450Y-5402630D01*
X825040Y-5394590D01*
X831380Y-5381720D01*
X833500Y-5370460D01*
G01X1145000Y-4690000D02*
X695000D01*
Y-4890000D01*
X1145000D01*
Y-4690000D01*
G01X2596000Y-3957700D02*
Y-3678300D01*
X1096000D01*
Y-3957700D01*
X2596000D01*
G01X1670000Y-6865000D02*
Y-6415000D01*
X1470000D01*
Y-6865000D01*
X1670000D01*
G01X2580000D02*
Y-6415000D01*
X2380000D01*
Y-6865000D01*
X2580000D01*
G01X2805400Y-5120000D02*
G03I-25400J0D01*
G01X3500000Y-6865000D02*
Y-6415000D01*
X3300000D01*
Y-6865000D01*
X3500000D01*
G01X4420000D02*
Y-6415000D01*
X4220000D01*
Y-6865000D01*
X4420000D01*
G01X4845000Y-4720000D02*
X5295000D01*
Y-4520000D01*
X4845000D01*
Y-4720000D01*
G01X4895000Y-3960000D02*
X5345000D01*
Y-3760000D01*
X4895000D01*
Y-3960000D01*
G01X5340000Y-6865000D02*
Y-6415000D01*
X5140000D01*
Y-6865000D01*
X5340000D01*
G01X6270000D02*
Y-6415000D01*
X6070000D01*
Y-6865000D01*
X6270000D01*
G01X7190000D02*
Y-6415000D01*
X6990000D01*
Y-6865000D01*
X7190000D01*
G01X7904300Y-4306000D02*
X8183700D01*
Y-2806000D01*
X7904300D01*
Y-4306000D01*
G54D11*
G01X192360Y-4520000D02*
G03I-22360J0D01*
G01X1302500Y-6100000D02*
X887500D01*
Y-6300000D01*
X1327500D01*
Y-6100000D01*
X1302500D01*
G01X723000Y-6395000D02*
G03I-10000J0D01*
G01X1910000Y-5600000D02*
G03I-500000J0D01*
G01X3939000Y-1289000D02*
X3940000Y-1288000D01*
Y-1170000D01*
X1240000D01*
Y-3870000D01*
X3940000D01*
Y-1288000D01*
G01X2082500Y-6100000D02*
X1667500D01*
Y-6300000D01*
X2107500D01*
Y-6100000D01*
X2082500D01*
G01X1633000Y-6395000D02*
G03I-10000J0D01*
G01X1685000Y-2230000D02*
G03I-10000J0D01*
G01X3132500Y-6100000D02*
X2717500D01*
Y-6300000D01*
X3157500D01*
Y-6100000D01*
X3132500D01*
G01X2553000Y-6395000D02*
G03I-10000J0D01*
G01X3950000Y-4830000D02*
G03I-500000J0D01*
G01X3473000Y-6395000D02*
G03I-10000J0D01*
G01X4052500Y-6100000D02*
X3637500D01*
Y-6300000D01*
X4077500D01*
Y-6100000D01*
X4052500D01*
G01X4124980Y-5590000D02*
G03I-294980J0D01*
G01X3939000Y-2001000D02*
Y-3062000D01*
X3938000Y-3063000D01*
X3638000D01*
Y-2001000D01*
X3939000D01*
G01X3828790Y-1946000D02*
G03I-18790J0D01*
G01X4982500Y-6100000D02*
X4567500D01*
Y-6300000D01*
X5007500D01*
Y-6100000D01*
X4982500D01*
G01X4393000Y-6395000D02*
G03I-10000J0D01*
G01X4495000Y-1318500D02*
G03I-10000J0D01*
G01X5313000Y-6395000D02*
G03I-10000J0D01*
G01X5892500Y-6100000D02*
X5477500D01*
Y-6300000D01*
X5917500D01*
Y-6100000D01*
X5892500D01*
G01X6812500D02*
X6397500D01*
Y-6300000D01*
X6837500D01*
Y-6100000D01*
X6812500D01*
G01X6233000Y-6395000D02*
G03I-10000J0D01*
G01X7732500Y-6100000D02*
X7317500D01*
Y-6300000D01*
X7757500D01*
Y-6100000D01*
X7732500D01*
G01X7153000Y-6395000D02*
G03I-10000J0D01*
G01X7410000Y-890000D02*
G03I-10000J0D01*
G54D12*
G01X53330Y-6140000D02*
X60000Y-6150000D01*
X68000Y-6156670D01*
X77330Y-6160000D01*
X88000Y-6156670D01*
X96000Y-6150000D01*
X104000Y-6140000D01*
X106670Y-6126670D01*
Y-6060000D01*
G01X157330Y-6148340D02*
X166670Y-6156670D01*
X177330Y-6160000D01*
X188000Y-6156670D01*
X197330Y-6146670D01*
X204000Y-6131670D01*
X206670Y-6116670D01*
Y-6098330D01*
X204000Y-6083330D01*
X197330Y-6070000D01*
X189330Y-6063330D01*
X180000Y-6060000D01*
X169330Y-6063330D01*
X161330Y-6070000D01*
X156000Y-6080000D01*
X153330Y-6093340D01*
X156000Y-6105000D01*
X162670Y-6116670D01*
X170670Y-6123340D01*
X180000Y-6125000D01*
X190670Y-6121670D01*
X198670Y-6113330D01*
X206670Y-6098330D01*
G01X170670Y-4310000D02*
Y-4210000D01*
X197330D01*
X208000Y-4215000D01*
X216000Y-4221670D01*
X222670Y-4231670D01*
X228000Y-4243340D01*
X229330Y-4260000D01*
X228000Y-4276670D01*
X222670Y-4288330D01*
X216000Y-4298340D01*
X208000Y-4305000D01*
X197330Y-4310000D01*
X170670D01*
G01X270670Y-4290000D02*
X278670Y-4301670D01*
X289330Y-4308330D01*
X301330Y-4310000D01*
X312000Y-4308330D01*
X322670Y-4300000D01*
X329330Y-4290000D01*
X330670Y-4280000D01*
X328000Y-4268340D01*
X318670Y-4260000D01*
X309330Y-4256670D01*
X297330D01*
G01X309330D02*
X317330Y-4251670D01*
X324000Y-4243340D01*
X326670Y-4233330D01*
X324000Y-4223330D01*
X317330Y-4215000D01*
X305330Y-4210000D01*
X293330Y-4211670D01*
X281330Y-4218330D01*
G01X183330Y-3330000D02*
X190000Y-3340000D01*
X198000Y-3346670D01*
X207330Y-3350000D01*
X218000Y-3346670D01*
X226000Y-3340000D01*
X234000Y-3330000D01*
X236670Y-3316670D01*
Y-3250000D01*
G01X310000Y-3350000D02*
X319330Y-3348330D01*
X330000Y-3343330D01*
X336670Y-3335000D01*
X339330Y-3323330D01*
X336670Y-3311670D01*
X328670Y-3301670D01*
X316670Y-3296670D01*
X303330D01*
X295330Y-3293330D01*
X288670Y-3285000D01*
X286000Y-3273330D01*
X290000Y-3261670D01*
X299330Y-3253330D01*
X310000Y-3250000D01*
X320670Y-3253330D01*
X330000Y-3261670D01*
X334000Y-3273330D01*
X331330Y-3285000D01*
X324670Y-3293330D01*
X316670Y-3296670D01*
X303330D01*
X291330Y-3301670D01*
X283330Y-3311670D01*
X280670Y-3323330D01*
X283330Y-3335000D01*
X290000Y-3343330D01*
X300670Y-3348330D01*
X310000Y-3350000D01*
G01X953330Y-6950000D02*
X960000Y-6960000D01*
X968000Y-6966670D01*
X977330Y-6970000D01*
X988000Y-6966670D01*
X996000Y-6960000D01*
X1004000Y-6950000D01*
X1006670Y-6936670D01*
Y-6870000D01*
G01X1080000Y-6970000D02*
Y-6870000D01*
X1064000Y-6890000D01*
G01Y-6970000D02*
X1096000D01*
G01X1180000Y-6870000D02*
X1169330Y-6873330D01*
X1161330Y-6881670D01*
X1156000Y-6891670D01*
X1152000Y-6905000D01*
X1150670Y-6920000D01*
X1152000Y-6935000D01*
X1156000Y-6948330D01*
X1161330Y-6958340D01*
X1169330Y-6966670D01*
X1180000Y-6970000D01*
X1190670Y-6966670D01*
X1198670Y-6958340D01*
X1204000Y-6948330D01*
X1208000Y-6935000D01*
X1209330Y-6920000D01*
X1208000Y-6905000D01*
X1204000Y-6891670D01*
X1198670Y-6881670D01*
X1190670Y-6873330D01*
X1180000Y-6870000D01*
G01X959330Y-5978330D02*
X951330Y-5973330D01*
X942000Y-5970000D01*
X931330D01*
X919330Y-5975000D01*
X910000Y-5983330D01*
X903330Y-5993330D01*
X898000Y-6010000D01*
X896670Y-6025000D01*
X899330Y-6040000D01*
X903330Y-6050000D01*
X911330Y-6060000D01*
X920670Y-6066670D01*
X930000Y-6070000D01*
X939330D01*
X948670Y-6066670D01*
X956670Y-6061670D01*
X963330Y-6055000D01*
G01X1030000Y-6070000D02*
Y-5970000D01*
X1014000Y-5990000D01*
G01Y-6070000D02*
X1046000D01*
G01X803330Y-4670000D02*
Y-4570000D01*
X836670D01*
X847330Y-4575000D01*
X854000Y-4581670D01*
X856670Y-4595000D01*
X854000Y-4608330D01*
X846000Y-4616670D01*
X836670Y-4621670D01*
X803330D01*
G01X836670D02*
X856670Y-4670000D01*
G01X930000D02*
Y-4570000D01*
X914000Y-4590000D01*
G01Y-4670000D02*
X946000D01*
G01X1004670Y-4586670D02*
X1012670Y-4576670D01*
X1022000Y-4571670D01*
X1032670Y-4570000D01*
X1046000Y-4573330D01*
X1055330Y-4581670D01*
X1058000Y-4591670D01*
X1056670Y-4601670D01*
X1051330Y-4610000D01*
X1024670Y-4626670D01*
X1012670Y-4638330D01*
X1004670Y-4655000D01*
X1002000Y-4670000D01*
X1058000D01*
G01X1233330Y-4320000D02*
X1240000Y-4330000D01*
X1248000Y-4336670D01*
X1257330Y-4340000D01*
X1268000Y-4336670D01*
X1276000Y-4330000D01*
X1284000Y-4320000D01*
X1286670Y-4306670D01*
Y-4240000D01*
G01X1376000Y-4340000D02*
Y-4240000D01*
X1326670Y-4311670D01*
X1393330D01*
G01X1473330Y-6370000D02*
Y-6270000D01*
X1506670D01*
X1517330Y-6275000D01*
X1524000Y-6281670D01*
X1526670Y-6295000D01*
X1524000Y-6308330D01*
X1516000Y-6316670D01*
X1506670Y-6321670D01*
X1473330D01*
G01X1506670D02*
X1526670Y-6370000D01*
G01X1570670Y-6355000D02*
X1578670Y-6363330D01*
X1588000Y-6368330D01*
X1600000Y-6370000D01*
X1612000Y-6366670D01*
X1621330Y-6360000D01*
X1628000Y-6348330D01*
X1629330Y-6335000D01*
X1626670Y-6321670D01*
X1620000Y-6313330D01*
X1610670Y-6306670D01*
X1601330Y-6305000D01*
X1592000Y-6306670D01*
X1580000Y-6313330D01*
X1584000Y-6270000D01*
X1620000D01*
G01X1873330Y-6940000D02*
X1880000Y-6950000D01*
X1888000Y-6956670D01*
X1897330Y-6960000D01*
X1908000Y-6956670D01*
X1916000Y-6950000D01*
X1924000Y-6940000D01*
X1926670Y-6926670D01*
Y-6860000D01*
G01X2000000Y-6960000D02*
Y-6860000D01*
X1984000Y-6880000D01*
G01Y-6960000D02*
X2016000D01*
G01X2100000D02*
Y-6860000D01*
X2084000Y-6880000D01*
G01Y-6960000D02*
X2116000D01*
G01X1999330Y-5978330D02*
X1991330Y-5973330D01*
X1982000Y-5970000D01*
X1971330D01*
X1959330Y-5975000D01*
X1950000Y-5983330D01*
X1943330Y-5993330D01*
X1938000Y-6010000D01*
X1936670Y-6025000D01*
X1939330Y-6040000D01*
X1943330Y-6050000D01*
X1951330Y-6060000D01*
X1960670Y-6066670D01*
X1970000Y-6070000D01*
X1979330D01*
X1988670Y-6066670D01*
X1996670Y-6061670D01*
X2003330Y-6055000D01*
G01X2044670Y-5986670D02*
X2052670Y-5976670D01*
X2062000Y-5971670D01*
X2072670Y-5970000D01*
X2086000Y-5973330D01*
X2095330Y-5981670D01*
X2098000Y-5991670D01*
X2096670Y-6001670D01*
X2091330Y-6010000D01*
X2064670Y-6026670D01*
X2052670Y-6038330D01*
X2044670Y-6055000D01*
X2042000Y-6070000D01*
X2098000D01*
G01X2019330Y-5518330D02*
X2011330Y-5513330D01*
X2002000Y-5510000D01*
X1991330D01*
X1979330Y-5515000D01*
X1970000Y-5523330D01*
X1963330Y-5533330D01*
X1958000Y-5550000D01*
X1956670Y-5565000D01*
X1959330Y-5580000D01*
X1963330Y-5590000D01*
X1971330Y-5600000D01*
X1980670Y-5606670D01*
X1990000Y-5610000D01*
X1999330D01*
X2008670Y-5606670D01*
X2016670Y-5601670D01*
X2023330Y-5595000D01*
G01X2090000Y-5610000D02*
Y-5510000D01*
X2074000Y-5530000D01*
G01Y-5610000D02*
X2106000D01*
G01X2190000D02*
Y-5510000D01*
X2174000Y-5530000D01*
G01Y-5610000D02*
X2206000D01*
G01X2053330Y-4570000D02*
Y-4670000D01*
X2106670D01*
G01X2180000D02*
Y-4570000D01*
X2164000Y-4590000D01*
G01Y-4670000D02*
X2196000D01*
G01X2403330Y-6350000D02*
Y-6250000D01*
X2436670D01*
X2447330Y-6255000D01*
X2454000Y-6261670D01*
X2456670Y-6275000D01*
X2454000Y-6288330D01*
X2446000Y-6296670D01*
X2436670Y-6301670D01*
X2403330D01*
G01X2436670D02*
X2456670Y-6350000D01*
G01X2504670Y-6308340D02*
X2514000Y-6296670D01*
X2522000Y-6290000D01*
X2532670Y-6286670D01*
X2542000Y-6290000D01*
X2548670Y-6296670D01*
X2554000Y-6306670D01*
X2555330Y-6318330D01*
X2554000Y-6328330D01*
X2548670Y-6338340D01*
X2540670Y-6346670D01*
X2531330Y-6350000D01*
X2520670Y-6346670D01*
X2511330Y-6336670D01*
X2506000Y-6321670D01*
X2504670Y-6305000D01*
X2507330Y-6283340D01*
X2511330Y-6271670D01*
X2518000Y-6260000D01*
X2527330Y-6251670D01*
X2536670Y-6250000D01*
X2546000Y-6253330D01*
X2552670Y-6261670D01*
G01X2143330Y-2340000D02*
X2150000Y-2350000D01*
X2158000Y-2356670D01*
X2167330Y-2360000D01*
X2178000Y-2356670D01*
X2186000Y-2350000D01*
X2194000Y-2340000D01*
X2196670Y-2326670D01*
Y-2260000D01*
G01X2240670Y-2345000D02*
X2248670Y-2353330D01*
X2258000Y-2358330D01*
X2270000Y-2360000D01*
X2282000Y-2356670D01*
X2291330Y-2350000D01*
X2298000Y-2338330D01*
X2299330Y-2325000D01*
X2296670Y-2311670D01*
X2290000Y-2303330D01*
X2280670Y-2296670D01*
X2271330Y-2295000D01*
X2262000Y-2296670D01*
X2250000Y-2303330D01*
X2254000Y-2260000D01*
X2290000D01*
G01X2803330Y-6950000D02*
X2810000Y-6960000D01*
X2818000Y-6966670D01*
X2827330Y-6970000D01*
X2838000Y-6966670D01*
X2846000Y-6960000D01*
X2854000Y-6950000D01*
X2856670Y-6936670D01*
Y-6870000D01*
G01X2930000Y-6970000D02*
Y-6870000D01*
X2914000Y-6890000D01*
G01Y-6970000D02*
X2946000D01*
G01X3004670Y-6886670D02*
X3012670Y-6876670D01*
X3022000Y-6871670D01*
X3032670Y-6870000D01*
X3046000Y-6873330D01*
X3055330Y-6881670D01*
X3058000Y-6891670D01*
X3056670Y-6901670D01*
X3051330Y-6910000D01*
X3024670Y-6926670D01*
X3012670Y-6938330D01*
X3004670Y-6955000D01*
X3002000Y-6970000D01*
X3058000D01*
G01X2929330Y-5978330D02*
X2921330Y-5973330D01*
X2912000Y-5970000D01*
X2901330D01*
X2889330Y-5975000D01*
X2880000Y-5983330D01*
X2873330Y-5993330D01*
X2868000Y-6010000D01*
X2866670Y-6025000D01*
X2869330Y-6040000D01*
X2873330Y-6050000D01*
X2881330Y-6060000D01*
X2890670Y-6066670D01*
X2900000Y-6070000D01*
X2909330D01*
X2918670Y-6066670D01*
X2926670Y-6061670D01*
X2933330Y-6055000D01*
G01X2970670Y-6050000D02*
X2978670Y-6061670D01*
X2989330Y-6068330D01*
X3001330Y-6070000D01*
X3012000Y-6068330D01*
X3022670Y-6060000D01*
X3029330Y-6050000D01*
X3030670Y-6040000D01*
X3028000Y-6028340D01*
X3018670Y-6020000D01*
X3009330Y-6016670D01*
X2997330D01*
G01X3009330D02*
X3017330Y-6011670D01*
X3024000Y-6003340D01*
X3026670Y-5993330D01*
X3024000Y-5983330D01*
X3017330Y-5975000D01*
X3005330Y-5970000D01*
X2993330Y-5971670D01*
X2981330Y-5978330D01*
G01X3343330Y-6370000D02*
Y-6270000D01*
X3376670D01*
X3387330Y-6275000D01*
X3394000Y-6281670D01*
X3396670Y-6295000D01*
X3394000Y-6308330D01*
X3386000Y-6316670D01*
X3376670Y-6321670D01*
X3343330D01*
G01X3376670D02*
X3396670Y-6370000D01*
G01X3467330D02*
X3470000Y-6348330D01*
X3474000Y-6330000D01*
X3479330Y-6313330D01*
X3486000Y-6295000D01*
X3496670Y-6270000D01*
X3443330D01*
G01X3389330Y-5618330D02*
X3381330Y-5613330D01*
X3372000Y-5610000D01*
X3361330D01*
X3349330Y-5615000D01*
X3340000Y-5623330D01*
X3333330Y-5633330D01*
X3328000Y-5650000D01*
X3326670Y-5665000D01*
X3329330Y-5680000D01*
X3333330Y-5690000D01*
X3341330Y-5700000D01*
X3350670Y-5706670D01*
X3360000Y-5710000D01*
X3369330D01*
X3378670Y-5706670D01*
X3386670Y-5701670D01*
X3393330Y-5695000D01*
G01X3437330Y-5698340D02*
X3446670Y-5706670D01*
X3457330Y-5710000D01*
X3468000Y-5706670D01*
X3477330Y-5696670D01*
X3484000Y-5681670D01*
X3486670Y-5666670D01*
Y-5648330D01*
X3484000Y-5633330D01*
X3477330Y-5620000D01*
X3469330Y-5613330D01*
X3460000Y-5610000D01*
X3449330Y-5613330D01*
X3441330Y-5620000D01*
X3436000Y-5630000D01*
X3433330Y-5643340D01*
X3436000Y-5655000D01*
X3442670Y-5666670D01*
X3450670Y-5673340D01*
X3460000Y-5675000D01*
X3470670Y-5671670D01*
X3478670Y-5663330D01*
X3486670Y-5648330D01*
G01X3399330Y-4208330D02*
X3391330Y-4203330D01*
X3382000Y-4200000D01*
X3371330D01*
X3359330Y-4205000D01*
X3350000Y-4213330D01*
X3343330Y-4223330D01*
X3338000Y-4240000D01*
X3336670Y-4255000D01*
X3339330Y-4270000D01*
X3343330Y-4280000D01*
X3351330Y-4290000D01*
X3360670Y-4296670D01*
X3370000Y-4300000D01*
X3379330D01*
X3388670Y-4296670D01*
X3396670Y-4291670D01*
X3403330Y-4285000D01*
G01X3470000Y-4300000D02*
Y-4200000D01*
X3454000Y-4220000D01*
G01Y-4300000D02*
X3486000D01*
G01X3544670Y-4216670D02*
X3552670Y-4206670D01*
X3562000Y-4201670D01*
X3572670Y-4200000D01*
X3586000Y-4203330D01*
X3595330Y-4211670D01*
X3598000Y-4221670D01*
X3596670Y-4231670D01*
X3591330Y-4240000D01*
X3564670Y-4256670D01*
X3552670Y-4268330D01*
X3544670Y-4285000D01*
X3542000Y-4300000D01*
X3598000D01*
G01X3214750Y-260000D02*
Y-40000D01*
G01X3341410D02*
X3214750Y-175670D01*
G01X3361410Y-260000D02*
X3271410Y-113340D01*
G01X3436650Y-260000D02*
Y-40000D01*
X3519990D01*
X3546650Y-51000D01*
X3563320Y-65670D01*
X3569990Y-95000D01*
X3563320Y-124340D01*
X3543320Y-142660D01*
X3519990Y-153670D01*
X3436650D01*
G01X3519990D02*
X3569990Y-260000D01*
G01X3678560Y-40000D02*
X3758550D01*
G01X3718560D02*
Y-260000D01*
G01X3678560D02*
X3758550D01*
G01X3933800D02*
Y-161000D01*
X3867130Y-40000D01*
G01X4000470D02*
X3933800Y-161000D01*
G01X4065700Y-260000D02*
X4149040Y-40000D01*
X4232380Y-260000D01*
G01X4202370Y-183000D02*
X4095700D01*
G01X4320950Y-186670D02*
X4407610D01*
G01X4492850Y-260000D02*
Y-40000D01*
X4579520Y-223330D01*
X4666190Y-40000D01*
Y-260000D01*
G01X4711420D02*
X4794760Y-40000D01*
X4878100Y-260000D01*
G01X4848090Y-183000D02*
X4741420D01*
G01X4940000Y-230670D02*
X4966670Y-249000D01*
X4996670Y-260000D01*
X5023330D01*
X5050000Y-249000D01*
X5070000Y-230670D01*
X5080000Y-205000D01*
X5073340Y-179340D01*
X5056670Y-157340D01*
X5026670Y-142660D01*
X4986670Y-135330D01*
X4963330Y-120670D01*
X4953330Y-95000D01*
X4960000Y-69330D01*
X4976660Y-51000D01*
X5000000Y-40000D01*
X5023330D01*
X5046670Y-47330D01*
X5066670Y-65670D01*
G01X5155240Y-230670D02*
X5181910Y-249000D01*
X5211910Y-260000D01*
X5238570D01*
X5265240Y-249000D01*
X5285240Y-230670D01*
X5295240Y-205000D01*
X5288580Y-179340D01*
X5271910Y-157340D01*
X5241910Y-142660D01*
X5201910Y-135330D01*
X5178570Y-120670D01*
X5168570Y-95000D01*
X5175240Y-69330D01*
X5191900Y-51000D01*
X5215240Y-40000D01*
X5238570D01*
X5261910Y-47330D01*
X5281910Y-65670D01*
G01X5397150Y-186670D02*
X5483810D01*
G01X5729050Y-58340D02*
X5709050Y-47330D01*
X5685720Y-40000D01*
X5659060D01*
X5629050Y-51000D01*
X5605720Y-69330D01*
X5589050Y-91340D01*
X5575720Y-128000D01*
X5572380Y-161000D01*
X5579050Y-194000D01*
X5589050Y-216000D01*
X5609050Y-238000D01*
X5632390Y-252670D01*
X5655720Y-260000D01*
X5679050D01*
X5702390Y-252670D01*
X5722390Y-241670D01*
X5739060Y-227010D01*
G01X5787620Y-260000D02*
X5870960Y-40000D01*
X5954300Y-260000D01*
G01X5924290Y-183000D02*
X5817620D01*
G01X6019530Y-40000D02*
Y-260000D01*
X6152870D01*
G01X6234770Y-40000D02*
Y-260000D01*
X6368110D01*
G01X6473350Y-186670D02*
X6560010D01*
G01X6731920Y-260000D02*
Y-40000D01*
X6691920Y-84000D01*
G01Y-260000D02*
X6771910D01*
G01X6863820Y-40000D02*
X6947160Y-260000D01*
X7030500Y-40000D01*
G01X7162400D02*
X7135730Y-47330D01*
X7115730Y-65670D01*
X7102400Y-87660D01*
X7092400Y-117000D01*
X7089070Y-150000D01*
X7092400Y-183000D01*
X7102400Y-212340D01*
X7115730Y-234340D01*
X7135730Y-252670D01*
X7162400Y-260000D01*
X7189060Y-252670D01*
X7209070Y-234340D01*
X7222400Y-212340D01*
X7232400Y-183000D01*
X7235730Y-150000D01*
X7232400Y-117000D01*
X7222400Y-87660D01*
X7209070Y-65670D01*
X7189060Y-47330D01*
X7162400Y-40000D01*
G01X3723330Y-6950000D02*
X3730000Y-6960000D01*
X3738000Y-6966670D01*
X3747330Y-6970000D01*
X3758000Y-6966670D01*
X3766000Y-6960000D01*
X3774000Y-6950000D01*
X3776670Y-6936670D01*
Y-6870000D01*
G01X3850000Y-6970000D02*
Y-6870000D01*
X3834000Y-6890000D01*
G01Y-6970000D02*
X3866000D01*
G01X3920670Y-6950000D02*
X3928670Y-6961670D01*
X3939330Y-6968330D01*
X3951330Y-6970000D01*
X3962000Y-6968330D01*
X3972670Y-6960000D01*
X3979330Y-6950000D01*
X3980670Y-6940000D01*
X3978000Y-6928340D01*
X3968670Y-6920000D01*
X3959330Y-6916670D01*
X3947330D01*
G01X3959330D02*
X3967330Y-6911670D01*
X3974000Y-6903340D01*
X3976670Y-6893330D01*
X3974000Y-6883330D01*
X3967330Y-6875000D01*
X3955330Y-6870000D01*
X3943330Y-6871670D01*
X3931330Y-6878330D01*
G01X3879330Y-5978330D02*
X3871330Y-5973330D01*
X3862000Y-5970000D01*
X3851330D01*
X3839330Y-5975000D01*
X3830000Y-5983330D01*
X3823330Y-5993330D01*
X3818000Y-6010000D01*
X3816670Y-6025000D01*
X3819330Y-6040000D01*
X3823330Y-6050000D01*
X3831330Y-6060000D01*
X3840670Y-6066670D01*
X3850000Y-6070000D01*
X3859330D01*
X3868670Y-6066670D01*
X3876670Y-6061670D01*
X3883330Y-6055000D01*
G01X3966000Y-6070000D02*
Y-5970000D01*
X3916670Y-6041670D01*
X3983330D01*
G01X4253330Y-6360000D02*
Y-6260000D01*
X4286670D01*
X4297330Y-6265000D01*
X4304000Y-6271670D01*
X4306670Y-6285000D01*
X4304000Y-6298330D01*
X4296000Y-6306670D01*
X4286670Y-6311670D01*
X4253330D01*
G01X4286670D02*
X4306670Y-6360000D01*
G01X4380000D02*
X4389330Y-6358330D01*
X4400000Y-6353330D01*
X4406670Y-6345000D01*
X4409330Y-6333330D01*
X4406670Y-6321670D01*
X4398670Y-6311670D01*
X4386670Y-6306670D01*
X4373330D01*
X4365330Y-6303330D01*
X4358670Y-6295000D01*
X4356000Y-6283330D01*
X4360000Y-6271670D01*
X4369330Y-6263330D01*
X4380000Y-6260000D01*
X4390670Y-6263330D01*
X4400000Y-6271670D01*
X4404000Y-6283330D01*
X4401330Y-6295000D01*
X4394670Y-6303330D01*
X4386670Y-6306670D01*
X4373330D01*
X4361330Y-6311670D01*
X4353330Y-6321670D01*
X4350670Y-6333330D01*
X4353330Y-6345000D01*
X4360000Y-6353330D01*
X4370670Y-6358330D01*
X4380000Y-6360000D01*
G01X3983330Y-2610000D02*
X3990000Y-2620000D01*
X3998000Y-2626670D01*
X4007330Y-2630000D01*
X4018000Y-2626670D01*
X4026000Y-2620000D01*
X4034000Y-2610000D01*
X4036670Y-2596670D01*
Y-2530000D01*
G01X4107330Y-2630000D02*
X4110000Y-2608330D01*
X4114000Y-2590000D01*
X4119330Y-2573330D01*
X4126000Y-2555000D01*
X4136670Y-2530000D01*
X4083330D01*
G01X4613330Y-6950000D02*
X4620000Y-6960000D01*
X4628000Y-6966670D01*
X4637330Y-6970000D01*
X4648000Y-6966670D01*
X4656000Y-6960000D01*
X4664000Y-6950000D01*
X4666670Y-6936670D01*
Y-6870000D01*
G01X4740000Y-6970000D02*
Y-6870000D01*
X4724000Y-6890000D01*
G01Y-6970000D02*
X4756000D01*
G01X4856000D02*
Y-6870000D01*
X4806670Y-6941670D01*
X4873330D01*
G01X4333330Y-5100000D02*
X4340000Y-5110000D01*
X4348000Y-5116670D01*
X4357330Y-5120000D01*
X4368000Y-5116670D01*
X4376000Y-5110000D01*
X4384000Y-5100000D01*
X4386670Y-5086670D01*
Y-5020000D01*
G01X4460000Y-5120000D02*
Y-5020000D01*
X4444000Y-5040000D01*
G01Y-5120000D02*
X4476000D01*
G01X4350670Y-450000D02*
Y-521670D01*
X4356000Y-536670D01*
X4366670Y-546670D01*
X4380000Y-550000D01*
X4393330Y-546670D01*
X4404000Y-536670D01*
X4409330Y-521670D01*
Y-450000D01*
G01X4480000Y-550000D02*
Y-450000D01*
X4464000Y-470000D01*
G01Y-550000D02*
X4496000D01*
G01X4759330Y-5978330D02*
X4751330Y-5973330D01*
X4742000Y-5970000D01*
X4731330D01*
X4719330Y-5975000D01*
X4710000Y-5983330D01*
X4703330Y-5993330D01*
X4698000Y-6010000D01*
X4696670Y-6025000D01*
X4699330Y-6040000D01*
X4703330Y-6050000D01*
X4711330Y-6060000D01*
X4720670Y-6066670D01*
X4730000Y-6070000D01*
X4739330D01*
X4748670Y-6066670D01*
X4756670Y-6061670D01*
X4763330Y-6055000D01*
G01X4800670D02*
X4808670Y-6063330D01*
X4818000Y-6068330D01*
X4830000Y-6070000D01*
X4842000Y-6066670D01*
X4851330Y-6060000D01*
X4858000Y-6048330D01*
X4859330Y-6035000D01*
X4856670Y-6021670D01*
X4850000Y-6013330D01*
X4840670Y-6006670D01*
X4831330Y-6005000D01*
X4822000Y-6006670D01*
X4810000Y-6013330D01*
X4814000Y-5970000D01*
X4850000D01*
G01X4883330Y-5790000D02*
Y-5570000D01*
X4970000Y-5753330D01*
X5056670Y-5570000D01*
Y-5790000D01*
G01X5245240D02*
Y-5643340D01*
G01Y-5669000D02*
X5231910Y-5654340D01*
X5211900Y-5647000D01*
X5188580Y-5643340D01*
X5165240Y-5650670D01*
X5145240Y-5665330D01*
X5131900Y-5687340D01*
X5125240Y-5716670D01*
X5131900Y-5746000D01*
X5145240Y-5768000D01*
X5165240Y-5782670D01*
X5188580Y-5790000D01*
X5211900Y-5786330D01*
X5231910Y-5775340D01*
X5245240Y-5760670D01*
G01X5350480Y-5764340D02*
X5367140Y-5779000D01*
X5390480Y-5790000D01*
X5410480D01*
X5430480Y-5782670D01*
X5443810Y-5771670D01*
X5450480Y-5757010D01*
X5447150Y-5735000D01*
X5433820Y-5724000D01*
X5373810Y-5702010D01*
X5360480Y-5676330D01*
X5367140Y-5658000D01*
X5380480Y-5647000D01*
X5400480Y-5643340D01*
X5420480Y-5647000D01*
X5440480Y-5658000D01*
G01X5565720Y-5764340D02*
X5582380Y-5779000D01*
X5605720Y-5790000D01*
X5625720D01*
X5645720Y-5782670D01*
X5659050Y-5771670D01*
X5665720Y-5757010D01*
X5662390Y-5735000D01*
X5649060Y-5724000D01*
X5589050Y-5702010D01*
X5575720Y-5676330D01*
X5582380Y-5658000D01*
X5595720Y-5647000D01*
X5615720Y-5643340D01*
X5635720Y-5647000D01*
X5655720Y-5658000D01*
G01X6119530Y-5588340D02*
X6099530Y-5577330D01*
X6076200Y-5570000D01*
X6049540D01*
X6019530Y-5581000D01*
X5996200Y-5599330D01*
X5979530Y-5621340D01*
X5966200Y-5658000D01*
X5962860Y-5691000D01*
X5969530Y-5724000D01*
X5979530Y-5746000D01*
X5999530Y-5768000D01*
X6022870Y-5782670D01*
X6046200Y-5790000D01*
X6069530D01*
X6092870Y-5782670D01*
X6112870Y-5771670D01*
X6129540Y-5757010D01*
G01X6321440Y-5790000D02*
Y-5643340D01*
G01Y-5669000D02*
X6308110Y-5654340D01*
X6288100Y-5647000D01*
X6264780Y-5643340D01*
X6241440Y-5650670D01*
X6221440Y-5665330D01*
X6208100Y-5687340D01*
X6201440Y-5716670D01*
X6208100Y-5746000D01*
X6221440Y-5768000D01*
X6241440Y-5782670D01*
X6264780Y-5790000D01*
X6288100Y-5786330D01*
X6308110Y-5775340D01*
X6321440Y-5760670D01*
G01X6476680Y-5790000D02*
Y-5570000D01*
G01X6691920Y-5790000D02*
Y-5570000D01*
G01X6857160Y-5691000D02*
X6963830D01*
X6953830Y-5665330D01*
X6937160Y-5650670D01*
X6913830Y-5643340D01*
X6890490Y-5647000D01*
X6870490Y-5658000D01*
X6857160Y-5683670D01*
X6850490Y-5705670D01*
Y-5727670D01*
X6857160Y-5749670D01*
X6873820Y-5771670D01*
X6893830Y-5786330D01*
X6917160Y-5790000D01*
X6940500Y-5782670D01*
X6963830Y-5760670D01*
G01X7075730Y-5790000D02*
Y-5643340D01*
G01Y-5672660D02*
X7092400Y-5658000D01*
X7109070Y-5647000D01*
X7132400Y-5643340D01*
X7149060Y-5647000D01*
X7169070Y-5658000D01*
G01X5163330Y-6330000D02*
Y-6230000D01*
X5196670D01*
X5207330Y-6235000D01*
X5214000Y-6241670D01*
X5216670Y-6255000D01*
X5214000Y-6268330D01*
X5206000Y-6276670D01*
X5196670Y-6281670D01*
X5163330D01*
G01X5196670D02*
X5216670Y-6330000D01*
G01X5267330Y-6318340D02*
X5276670Y-6326670D01*
X5287330Y-6330000D01*
X5298000Y-6326670D01*
X5307330Y-6316670D01*
X5314000Y-6301670D01*
X5316670Y-6286670D01*
Y-6268330D01*
X5314000Y-6253330D01*
X5307330Y-6240000D01*
X5299330Y-6233330D01*
X5290000Y-6230000D01*
X5279330Y-6233330D01*
X5271330Y-6240000D01*
X5266000Y-6250000D01*
X5263330Y-6263340D01*
X5266000Y-6275000D01*
X5272670Y-6286670D01*
X5280670Y-6293340D01*
X5290000Y-6295000D01*
X5300670Y-6291670D01*
X5308670Y-6283330D01*
X5316670Y-6268330D01*
G01X5063330Y-4840000D02*
Y-4740000D01*
X5096670D01*
X5107330Y-4745000D01*
X5114000Y-4751670D01*
X5116670Y-4765000D01*
X5114000Y-4778330D01*
X5106000Y-4786670D01*
X5096670Y-4791670D01*
X5063330D01*
G01X5096670D02*
X5116670Y-4840000D01*
G01X5164670Y-4756670D02*
X5172670Y-4746670D01*
X5182000Y-4741670D01*
X5192670Y-4740000D01*
X5206000Y-4743330D01*
X5215330Y-4751670D01*
X5218000Y-4761670D01*
X5216670Y-4771670D01*
X5211330Y-4780000D01*
X5184670Y-4796670D01*
X5172670Y-4808330D01*
X5164670Y-4825000D01*
X5162000Y-4840000D01*
X5218000D01*
G01X5043330Y-3720000D02*
Y-3620000D01*
X5076670D01*
X5087330Y-3625000D01*
X5094000Y-3631670D01*
X5096670Y-3645000D01*
X5094000Y-3658330D01*
X5086000Y-3666670D01*
X5076670Y-3671670D01*
X5043330D01*
G01X5076670D02*
X5096670Y-3720000D01*
G01X5170000D02*
Y-3620000D01*
X5154000Y-3640000D01*
G01Y-3720000D02*
X5186000D01*
G01X5593330Y-6950000D02*
X5600000Y-6960000D01*
X5608000Y-6966670D01*
X5617330Y-6970000D01*
X5628000Y-6966670D01*
X5636000Y-6960000D01*
X5644000Y-6950000D01*
X5646670Y-6936670D01*
Y-6870000D01*
G01X5720000Y-6970000D02*
Y-6870000D01*
X5704000Y-6890000D01*
G01Y-6970000D02*
X5736000D01*
G01X5790670Y-6955000D02*
X5798670Y-6963330D01*
X5808000Y-6968330D01*
X5820000Y-6970000D01*
X5832000Y-6966670D01*
X5841330Y-6960000D01*
X5848000Y-6948330D01*
X5849330Y-6935000D01*
X5846670Y-6921670D01*
X5840000Y-6913330D01*
X5830670Y-6906670D01*
X5821330Y-6905000D01*
X5812000Y-6906670D01*
X5800000Y-6913330D01*
X5804000Y-6870000D01*
X5840000D01*
G01X5669330Y-5988330D02*
X5661330Y-5983330D01*
X5652000Y-5980000D01*
X5641330D01*
X5629330Y-5985000D01*
X5620000Y-5993330D01*
X5613330Y-6003330D01*
X5608000Y-6020000D01*
X5606670Y-6035000D01*
X5609330Y-6050000D01*
X5613330Y-6060000D01*
X5621330Y-6070000D01*
X5630670Y-6076670D01*
X5640000Y-6080000D01*
X5649330D01*
X5658670Y-6076670D01*
X5666670Y-6071670D01*
X5673330Y-6065000D01*
G01X5714670Y-6038340D02*
X5724000Y-6026670D01*
X5732000Y-6020000D01*
X5742670Y-6016670D01*
X5752000Y-6020000D01*
X5758670Y-6026670D01*
X5764000Y-6036670D01*
X5765330Y-6048330D01*
X5764000Y-6058330D01*
X5758670Y-6068340D01*
X5750670Y-6076670D01*
X5741330Y-6080000D01*
X5730670Y-6076670D01*
X5721330Y-6066670D01*
X5716000Y-6051670D01*
X5714670Y-6035000D01*
X5717330Y-6013340D01*
X5721330Y-6001670D01*
X5728000Y-5990000D01*
X5737330Y-5981670D01*
X5746670Y-5980000D01*
X5756000Y-5983330D01*
X5762670Y-5991670D01*
G01X6043330Y-6330000D02*
Y-6230000D01*
X6076670D01*
X6087330Y-6235000D01*
X6094000Y-6241670D01*
X6096670Y-6255000D01*
X6094000Y-6268330D01*
X6086000Y-6276670D01*
X6076670Y-6281670D01*
X6043330D01*
G01X6076670D02*
X6096670Y-6330000D01*
G01X6170000D02*
Y-6230000D01*
X6154000Y-6250000D01*
G01Y-6330000D02*
X6186000D01*
G01X6270000Y-6230000D02*
X6259330Y-6233330D01*
X6251330Y-6241670D01*
X6246000Y-6251670D01*
X6242000Y-6265000D01*
X6240670Y-6280000D01*
X6242000Y-6295000D01*
X6246000Y-6308330D01*
X6251330Y-6318340D01*
X6259330Y-6326670D01*
X6270000Y-6330000D01*
X6280670Y-6326670D01*
X6288670Y-6318340D01*
X6294000Y-6308330D01*
X6298000Y-6295000D01*
X6299330Y-6280000D01*
X6298000Y-6265000D01*
X6294000Y-6251670D01*
X6288670Y-6241670D01*
X6280670Y-6233330D01*
X6270000Y-6230000D01*
G01X6483330Y-6950000D02*
X6490000Y-6960000D01*
X6498000Y-6966670D01*
X6507330Y-6970000D01*
X6518000Y-6966670D01*
X6526000Y-6960000D01*
X6534000Y-6950000D01*
X6536670Y-6936670D01*
Y-6870000D01*
G01X6610000Y-6970000D02*
Y-6870000D01*
X6594000Y-6890000D01*
G01Y-6970000D02*
X6626000D01*
G01X6684670Y-6928340D02*
X6694000Y-6916670D01*
X6702000Y-6910000D01*
X6712670Y-6906670D01*
X6722000Y-6910000D01*
X6728670Y-6916670D01*
X6734000Y-6926670D01*
X6735330Y-6938330D01*
X6734000Y-6948330D01*
X6728670Y-6958340D01*
X6720670Y-6966670D01*
X6711330Y-6970000D01*
X6700670Y-6966670D01*
X6691330Y-6956670D01*
X6686000Y-6941670D01*
X6684670Y-6925000D01*
X6687330Y-6903340D01*
X6691330Y-6891670D01*
X6698000Y-6880000D01*
X6707330Y-6871670D01*
X6716670Y-6870000D01*
X6726000Y-6873330D01*
X6732670Y-6881670D01*
G01X6589330Y-5988330D02*
X6581330Y-5983330D01*
X6572000Y-5980000D01*
X6561330D01*
X6549330Y-5985000D01*
X6540000Y-5993330D01*
X6533330Y-6003330D01*
X6528000Y-6020000D01*
X6526670Y-6035000D01*
X6529330Y-6050000D01*
X6533330Y-6060000D01*
X6541330Y-6070000D01*
X6550670Y-6076670D01*
X6560000Y-6080000D01*
X6569330D01*
X6578670Y-6076670D01*
X6586670Y-6071670D01*
X6593330Y-6065000D01*
G01X6657330Y-6080000D02*
X6660000Y-6058330D01*
X6664000Y-6040000D01*
X6669330Y-6023330D01*
X6676000Y-6005000D01*
X6686670Y-5980000D01*
X6633330D01*
G01X6963330Y-6320000D02*
Y-6220000D01*
X6996670D01*
X7007330Y-6225000D01*
X7014000Y-6231670D01*
X7016670Y-6245000D01*
X7014000Y-6258330D01*
X7006000Y-6266670D01*
X6996670Y-6271670D01*
X6963330D01*
G01X6996670D02*
X7016670Y-6320000D01*
G01X7090000D02*
Y-6220000D01*
X7074000Y-6240000D01*
G01Y-6320000D02*
X7106000D01*
G01X7190000D02*
Y-6220000D01*
X7174000Y-6240000D01*
G01Y-6320000D02*
X7206000D01*
G01X7373330Y-6950000D02*
X7380000Y-6960000D01*
X7388000Y-6966670D01*
X7397330Y-6970000D01*
X7408000Y-6966670D01*
X7416000Y-6960000D01*
X7424000Y-6950000D01*
X7426670Y-6936670D01*
Y-6870000D01*
G01X7500000Y-6970000D02*
Y-6870000D01*
X7484000Y-6890000D01*
G01Y-6970000D02*
X7516000D01*
G01X7597330D02*
X7600000Y-6948330D01*
X7604000Y-6930000D01*
X7609330Y-6913330D01*
X7616000Y-6895000D01*
X7626670Y-6870000D01*
X7573330D01*
G01X7479330Y-5988330D02*
X7471330Y-5983330D01*
X7462000Y-5980000D01*
X7451330D01*
X7439330Y-5985000D01*
X7430000Y-5993330D01*
X7423330Y-6003330D01*
X7418000Y-6020000D01*
X7416670Y-6035000D01*
X7419330Y-6050000D01*
X7423330Y-6060000D01*
X7431330Y-6070000D01*
X7440670Y-6076670D01*
X7450000Y-6080000D01*
X7459330D01*
X7468670Y-6076670D01*
X7476670Y-6071670D01*
X7483330Y-6065000D01*
G01X7550000Y-6080000D02*
X7559330Y-6078330D01*
X7570000Y-6073330D01*
X7576670Y-6065000D01*
X7579330Y-6053330D01*
X7576670Y-6041670D01*
X7568670Y-6031670D01*
X7556670Y-6026670D01*
X7543330D01*
X7535330Y-6023330D01*
X7528670Y-6015000D01*
X7526000Y-6003330D01*
X7530000Y-5991670D01*
X7539330Y-5983330D01*
X7550000Y-5980000D01*
X7560670Y-5983330D01*
X7570000Y-5991670D01*
X7574000Y-6003330D01*
X7571330Y-6015000D01*
X7564670Y-6023330D01*
X7556670Y-6026670D01*
X7543330D01*
X7531330Y-6031670D01*
X7523330Y-6041670D01*
X7520670Y-6053330D01*
X7523330Y-6065000D01*
X7530000Y-6073330D01*
X7540670Y-6078330D01*
X7550000Y-6080000D01*
G01X7503330Y-5140000D02*
X7510000Y-5150000D01*
X7518000Y-5156670D01*
X7527330Y-5160000D01*
X7538000Y-5156670D01*
X7546000Y-5150000D01*
X7554000Y-5140000D01*
X7556670Y-5126670D01*
Y-5060000D01*
G01X7604670Y-5076670D02*
X7612670Y-5066670D01*
X7622000Y-5061670D01*
X7632670Y-5060000D01*
X7646000Y-5063330D01*
X7655330Y-5071670D01*
X7658000Y-5081670D01*
X7656670Y-5091670D01*
X7651330Y-5100000D01*
X7624670Y-5116670D01*
X7612670Y-5128330D01*
X7604670Y-5145000D01*
X7602000Y-5160000D01*
X7658000D01*
G01X7613330Y-500000D02*
X7620000Y-510000D01*
X7628000Y-516670D01*
X7637330Y-520000D01*
X7648000Y-516670D01*
X7656000Y-510000D01*
X7664000Y-500000D01*
X7666670Y-486670D01*
Y-420000D01*
G01X7710670Y-500000D02*
X7718670Y-511670D01*
X7729330Y-518330D01*
X7741330Y-520000D01*
X7752000Y-518330D01*
X7762670Y-510000D01*
X7769330Y-500000D01*
X7770670Y-490000D01*
X7768000Y-478340D01*
X7758670Y-470000D01*
X7749330Y-466670D01*
X7737330D01*
G01X7749330D02*
X7757330Y-461670D01*
X7764000Y-453340D01*
X7766670Y-443330D01*
X7764000Y-433330D01*
X7757330Y-425000D01*
X7745330Y-420000D01*
X7733330Y-421670D01*
X7721330Y-428330D01*
G54D13*
G01X625000Y-4630000D02*
G03I-295000J0D01*
G01X1360000Y-6840000D02*
X860000D01*
G01X1360000Y-6340000D02*
X860000D01*
G01X1327000Y-2045000D02*
X1608000D01*
G01X1157500Y-1883000D02*
Y-1177000D01*
G01X2642500Y-893000D02*
Y-595000D01*
X1157500D01*
Y-893000D01*
G01X2270000Y-6840000D02*
X1770000D01*
G01X2270000Y-6340000D02*
X1770000D01*
G01X2795000Y-4870000D02*
G03I-315000J0D01*
G01X3190000Y-6840000D02*
X2690000D01*
G01X3190000Y-6340000D02*
X2690000D01*
G01X2642500Y-1843000D02*
Y-1177000D01*
G01X4110000Y-6840000D02*
X3610000D01*
G01X4110000Y-6340000D02*
X3610000D01*
G01X5030000Y-6840000D02*
X4530000D01*
G01X5030000Y-6340000D02*
X4530000D01*
G01X4542000Y-322500D02*
X7393000D01*
Y-5417500D01*
X4542000D01*
Y-322500D01*
Y-5417500D01*
X7393000D01*
G01X5950000Y-6840000D02*
X5450000D01*
G01X5950000Y-6340000D02*
X5450000D01*
G01X5648900Y-322500D02*
X7393000D01*
Y-5417500D01*
G01X6870000Y-6840000D02*
X6370000D01*
G01X6870000Y-6340000D02*
X6370000D01*
G01X7790000Y-6840000D02*
X7290000D01*
G01X7790000Y-6340000D02*
X7290000D01*
G01X8455000Y-1125000D02*
X7465000D01*
Y-550000D01*
X8455000D01*
Y-1125000D01*
G54D14*
G01X-612700Y-5962280D02*
X261740D01*
G01X-612700Y-5037720D02*
Y-5962280D01*
G01Y-5512700D02*
X-587300D01*
G01X-612700Y-5487300D02*
Y-5512700D01*
G01X-587300Y-5487300D02*
X-612700D01*
G01X-587300Y-5512700D02*
Y-5487300D01*
G01X852880Y-5037720D02*
X-612700D01*
G01X678260Y-5962280D02*
X852880D01*
G01D02*
Y-5669890D01*
G01Y-5330110D02*
Y-5037720D01*
M02*
