G04 ================== begin FILE IDENTIFICATION RECORD ==================*
G04 Layout Name:  D:/Apsis Solution/Automated_Caller/Footprint/gsm.brd*
G04 Film Name:    SOLDERMASK_BOTTOM*
G04 File Format:  Gerber RS274X*
G04 File Origin:  Cadence Allegro 23.1-P001*
G04 Origin Date:  Sat Mar 15 19:12:16 2025*
G04 *
G04 Layer:  VIA CLASS/SOLDERMASK_BOTTOM*
G04 Layer:  PIN/SOLDERMASK_BOTTOM*
G04 Layer:  PACKAGE GEOMETRY/SOLDERMASK_BOTTOM*
G04 Layer:  DRC ERROR CLASS/SOLDERMASK_BOTTOM*
G04 Layer:  BOARD GEOMETRY/SOLDERMASK_BOTTOM*
G04 Layer:  BOARD GEOMETRY/DESIGN_OUTLINE*
G04 *
G04 Offset:    (0.0000 0.0000)*
G04 Mirror:    No*
G04 Mode:      Positive*
G04 Rotation:  0*
G04 FullContactRelief:  No*
G04 UndefLineWidth:     0.1000*
G04 ================== end FILE IDENTIFICATION RECORD ====================*
%FSLAX25Y25*MOMM*%
%IR0*IPPOS*OFA0.00000B0.00000*MIA0B0*SFA1.00000B1.00000*%
%ADD17C,.6*%
%ADD24R,10.9442X8.5058*%
%ADD36O,2.2X1.4*%
%ADD35O,2.1X1.4*%
%ADD16O,1.5X2.*%
%ADD39O,1.4X2.2*%
%ADD26R,1.7X2.1*%
%ADD28R,1.X2.8*%
%ADD20O,1.38X2.1*%
%ADD19R,2.1X1.7*%
%ADD11O,3.1X3.8*%
%ADD34R,2.2X1.8*%
%ADD10O,3.9X3.1*%
%ADD40R,1.8X2.2*%
%ADD27C,2.*%
%ADD23C,1.0001*%
%ADD21C,1.2*%
%ADD33C,3.0001*%
%ADD30R,3.4X2.9*%
%ADD15C,5.*%
%ADD31C,1.6*%
%ADD18C,2.5*%
%ADD13C,1.7*%
%ADD12R,2.X2.*%
%ADD37R,2.2X2.2*%
%ADD38R,1.5X1.5*%
%ADD14R,1.6X1.6*%
%ADD22R,1.7X1.7*%
%ADD32R,1.8X1.8*%
%ADD29R,1.55X1.55*%
%ADD25R,1.2414X4.2386*%
%ADD41C,.1*%
G75*
%LPD*%
G75*
G54D10*
X470000Y-5970000D03*
G54D11*
X170000Y-5500000D03*
X770000D03*
G54D20*
X1211000Y-3818000D03*
X1719000D03*
X1465000D03*
X1973000D03*
X2481000D03*
X2227000D03*
G54D12*
X203000Y-4630000D03*
X2605000Y-4870000D03*
X3680000Y-5590000D03*
X7690000Y-890000D03*
G54D30*
X3420000Y-6760000D03*
G54D21*
X1220000Y-2280000D03*
X3059000Y-2139000D03*
X3270000Y-6170000D03*
X3395000Y-4985000D03*
X4510000Y-5600000D03*
X6630000Y-5840000D03*
X7010000Y-3400000D03*
G54D22*
X1685000Y-5600000D03*
X3175000Y-4830000D03*
G54D13*
X260000Y-2832000D03*
Y-2578000D03*
Y-2324000D03*
Y-1816000D03*
Y-2070000D03*
Y-1562000D03*
Y-1054000D03*
Y-1308000D03*
X1135000Y-5600000D03*
X3725000Y-4830000D03*
G54D31*
X3787000Y-2901000D03*
Y-2647000D03*
Y-2393000D03*
G54D40*
X8044000Y-3048000D03*
G54D41*
G01X8500000Y-7000000D02*
Y0D01*
X0D01*
Y-7000000D01*
X8500000D01*
G54D32*
X3790000Y-2139000D03*
G54D14*
X260000Y-3086000D03*
G54D23*
X1595000Y-995000D03*
X2395000D03*
G54D15*
X260000Y-260000D03*
X8240000Y-6740000D03*
X8150000Y-5400000D03*
Y-1700000D03*
X8240000Y-260000D03*
G54D33*
X4742000Y-5217500D03*
Y-522500D03*
X7193000Y-5217500D03*
Y-522500D03*
G54D24*
X2380000Y-6542210D03*
G54D25*
X2040000Y-5497000D03*
X2380000D03*
X2210000D03*
X2720000D03*
X2550000D03*
G54D34*
X4380000Y-4870000D03*
X7570000D03*
G54D16*
X457000Y-4630000D03*
X7960000Y-890000D03*
X8230000D03*
G54D26*
X2000000Y-5001500D03*
Y-4618500D03*
G54D35*
X4700000Y-4874500D03*
Y-4620500D03*
Y-4366500D03*
Y-4112500D03*
Y-3858500D03*
Y-3604500D03*
Y-3350500D03*
Y-3096500D03*
Y-2842500D03*
Y-2588500D03*
Y-2334500D03*
Y-2080500D03*
Y-1826500D03*
Y-1572500D03*
X7240000Y-4874500D03*
Y-4366500D03*
Y-4620500D03*
Y-4112500D03*
Y-3604500D03*
Y-3858500D03*
Y-3350500D03*
Y-2842500D03*
Y-3096500D03*
Y-2588500D03*
Y-2334500D03*
Y-1826500D03*
Y-2080500D03*
Y-1572500D03*
Y-1318500D03*
G54D17*
X1015000Y-6755000D03*
X4970000Y-5720000D03*
Y-5410000D03*
G54D18*
X830000Y-4010000D03*
Y-210000D03*
X2930000Y-4010000D03*
Y-210000D03*
G54D27*
X2355000Y-4870000D03*
X3980000Y-5590000D03*
G54D36*
X4380000Y-4362000D03*
Y-4616000D03*
Y-4108000D03*
Y-3600000D03*
Y-3854000D03*
Y-3346000D03*
Y-2838000D03*
Y-3092000D03*
Y-2584000D03*
Y-2330000D03*
Y-1822000D03*
Y-2076000D03*
Y-1568000D03*
Y-1314000D03*
X7570000Y-4362000D03*
Y-4616000D03*
Y-4108000D03*
Y-3600000D03*
Y-3854000D03*
Y-3346000D03*
Y-2838000D03*
Y-3092000D03*
Y-2584000D03*
Y-2330000D03*
Y-1822000D03*
Y-2076000D03*
Y-1568000D03*
Y-1314000D03*
G54D37*
X4700000Y-1318500D03*
G54D19*
X1278500Y-5330000D03*
X1661500D03*
G54D28*
X3181000Y-5910000D03*
X3420000D03*
X3659000D03*
G54D29*
X3175000Y-5580000D03*
X3405000D03*
G54D38*
X6775000Y-3100000D03*
X7005000D03*
G54D39*
X8044000Y-4064000D03*
Y-3810000D03*
Y-3556000D03*
Y-3302000D03*
M02*
