G04 ================== begin FILE IDENTIFICATION RECORD ==================*
G04 Layout Name:  D:/Apsis Solution/Automated_Caller/Footprint/gsm.brd*
G04 Film Name:    SOLDERMASK_TOP*
G04 File Format:  Gerber RS274X*
G04 File Origin:  Cadence Allegro 23.1-P001*
G04 Origin Date:  Sat Mar 15 19:12:16 2025*
G04 *
G04 Layer:  VIA CLASS/SOLDERMASK_TOP*
G04 Layer:  PIN/SOLDERMASK_TOP*
G04 Layer:  PACKAGE GEOMETRY/SOLDERMASK_TOP*
G04 Layer:  DRC ERROR CLASS/SOLDERMASK_TOP*
G04 Layer:  BOARD GEOMETRY/SOLDERMASK_TOP*
G04 Layer:  BOARD GEOMETRY/DESIGN_OUTLINE*
G04 *
G04 Offset:    (0.0000 0.0000)*
G04 Mirror:    No*
G04 Mode:      Positive*
G04 Rotation:  0*
G04 FullContactRelief:  No*
G04 UndefLineWidth:     0.1000*
G04 ================== end FILE IDENTIFICATION RECORD ====================*
%FSLAX25Y25*MOMM*%
%IR0*IPPOS*OFA0.00000B0.00000*MIA0B0*SFA1.00000B1.00000*%
%ADD28R,.9X1.8*%
%ADD19C,.6*%
%ADD37O,2.2X1.4*%
%ADD36O,2.1X1.4*%
%ADD17O,1.5X2.*%
%ADD39O,1.4X2.2*%
%ADD31R,1.4X2.*%
%ADD10O,5.2X2.2*%
%ADD18R,1.7X1.1*%
%ADD26R,1.4X2.4*%
%ADD23O,1.38X2.1*%
%ADD12O,3.1X3.8*%
%ADD35R,2.2X1.8*%
%ADD11O,3.9X3.1*%
%ADD40R,1.8X2.2*%
%ADD30C,2.*%
%ADD29C,1.0001*%
%ADD24C,1.2*%
%ADD34C,3.0001*%
%ADD25R,1.8X1.7*%
%ADD16C,5.*%
%ADD32C,1.6*%
%ADD22C,2.5*%
%ADD14C,1.7*%
%ADD13R,2.X2.*%
%ADD38R,2.2X2.2*%
%ADD21R,1.5X1.5*%
%ADD15R,1.6X1.6*%
%ADD27R,1.7X1.7*%
%ADD33R,1.8X1.8*%
%ADD20R,1.55X1.55*%
%ADD41C,.1*%
G75*
%LPD*%
G75*
G54D10*
X350000Y-6850000D03*
Y-6570000D03*
Y-6290000D03*
G54D20*
X995000Y-6200000D03*
X1225000D03*
X1775000D03*
X2005000D03*
X2825000D03*
X3055000D03*
X3745000D03*
X3975000D03*
X4675000D03*
X4905000D03*
X5585000D03*
X5815000D03*
X6505000D03*
X6735000D03*
X7425000D03*
X7655000D03*
G54D11*
X470000Y-5970000D03*
G54D21*
X805000Y-4790000D03*
X1035000D03*
X1570000Y-6525000D03*
Y-6755000D03*
X2480000Y-6525000D03*
Y-6755000D03*
X3400000Y-6525000D03*
Y-6755000D03*
X4320000Y-6525000D03*
Y-6755000D03*
X4955000Y-4620000D03*
X5005000Y-3860000D03*
X5240000Y-6525000D03*
Y-6755000D03*
X5185000Y-4620000D03*
X5235000Y-3860000D03*
X6170000Y-6525000D03*
Y-6755000D03*
X7090000Y-6525000D03*
Y-6755000D03*
G54D30*
X2355000Y-4870000D03*
X3980000Y-5590000D03*
G54D12*
X170000Y-5500000D03*
X770000D03*
G54D13*
X203000Y-4630000D03*
X2605000Y-4870000D03*
X3680000Y-5590000D03*
X7690000Y-890000D03*
G54D22*
X830000Y-4010000D03*
Y-210000D03*
X2930000Y-4010000D03*
Y-210000D03*
G54D40*
X8044000Y-3048000D03*
G54D31*
X2675000Y-1965000D03*
G54D41*
G01X8500000Y-7000000D02*
Y0D01*
X0D01*
Y-7000000D01*
X8500000D01*
G54D14*
X260000Y-2832000D03*
Y-2578000D03*
Y-2324000D03*
Y-1816000D03*
Y-2070000D03*
Y-1562000D03*
Y-1054000D03*
Y-1308000D03*
X1135000Y-5600000D03*
X3725000Y-4830000D03*
G54D32*
X3787000Y-2901000D03*
Y-2647000D03*
Y-2393000D03*
G54D23*
X1211000Y-3818000D03*
X1719000D03*
X1465000D03*
X1973000D03*
X2481000D03*
X2227000D03*
G54D33*
X3790000Y-2139000D03*
G54D15*
X260000Y-3086000D03*
G54D24*
X1220000Y-2280000D03*
X3059000Y-2139000D03*
X3270000Y-6170000D03*
X3395000Y-4985000D03*
X4510000Y-5600000D03*
X6630000Y-5840000D03*
X7010000Y-3400000D03*
G54D16*
X260000Y-260000D03*
X8240000Y-6740000D03*
X8150000Y-5400000D03*
Y-1700000D03*
X8240000Y-260000D03*
G54D25*
X1215000Y-1990000D03*
G54D34*
X4742000Y-5217500D03*
Y-522500D03*
X7193000Y-5217500D03*
Y-522500D03*
G54D35*
X4380000Y-4870000D03*
X7570000D03*
G54D26*
X1125000Y-1035000D03*
X2675000D03*
G54D17*
X457000Y-4630000D03*
X7960000Y-890000D03*
X8230000D03*
G54D27*
X1685000Y-5600000D03*
X3175000Y-4830000D03*
G54D18*
X865000Y-6755000D03*
Y-6425000D03*
X1355000Y-6755000D03*
Y-6425000D03*
X1775000Y-6755000D03*
Y-6425000D03*
X2265000Y-6755000D03*
Y-6425000D03*
X2695000Y-6755000D03*
Y-6425000D03*
X3185000Y-6755000D03*
Y-6425000D03*
X3615000Y-6755000D03*
Y-6425000D03*
X4105000Y-6755000D03*
Y-6425000D03*
X4535000Y-6755000D03*
Y-6425000D03*
X5025000Y-6755000D03*
Y-6425000D03*
X5455000Y-6755000D03*
Y-6425000D03*
X5945000Y-6755000D03*
Y-6425000D03*
X6375000Y-6755000D03*
Y-6425000D03*
X6865000Y-6755000D03*
Y-6425000D03*
X7295000Y-6755000D03*
Y-6425000D03*
X7785000Y-6755000D03*
Y-6425000D03*
G54D36*
X4700000Y-4874500D03*
Y-4620500D03*
Y-4366500D03*
Y-4112500D03*
Y-3858500D03*
Y-3604500D03*
Y-3350500D03*
Y-3096500D03*
Y-2842500D03*
Y-2588500D03*
Y-2334500D03*
Y-2080500D03*
Y-1826500D03*
Y-1572500D03*
X7240000Y-4874500D03*
Y-4366500D03*
Y-4620500D03*
Y-4112500D03*
Y-3604500D03*
Y-3858500D03*
Y-3350500D03*
Y-2842500D03*
Y-3096500D03*
Y-2588500D03*
Y-2334500D03*
Y-1826500D03*
Y-2080500D03*
Y-1572500D03*
Y-1318500D03*
G54D37*
X4380000Y-4362000D03*
Y-4616000D03*
Y-4108000D03*
Y-3600000D03*
Y-3854000D03*
Y-3346000D03*
Y-2838000D03*
Y-3092000D03*
Y-2584000D03*
Y-2330000D03*
Y-1822000D03*
Y-2076000D03*
Y-1568000D03*
Y-1314000D03*
X7570000Y-4362000D03*
Y-4616000D03*
Y-4108000D03*
Y-3600000D03*
Y-3854000D03*
Y-3346000D03*
Y-2838000D03*
Y-3092000D03*
Y-2584000D03*
Y-2330000D03*
Y-1822000D03*
Y-2076000D03*
Y-1568000D03*
Y-1314000D03*
G54D19*
X1015000Y-6755000D03*
X4970000Y-5720000D03*
Y-5410000D03*
G54D28*
X1675000Y-2095000D03*
X2115000D03*
X2005000D03*
X1895000D03*
X1785000D03*
X2445000D03*
X2335000D03*
X2225000D03*
X2555000D03*
G54D38*
X4700000Y-1318500D03*
G54D29*
X1595000Y-995000D03*
X2395000D03*
G54D39*
X8044000Y-4064000D03*
Y-3810000D03*
Y-3556000D03*
Y-3302000D03*
M02*
