G04 ================== begin FILE IDENTIFICATION RECORD ==================*
G04 Layout Name:  D:/Apsis Solution/Automated_Caller/Footprint/gsm.brd*
G04 Film Name:    TOP*
G04 File Format:  Gerber RS274X*
G04 File Origin:  Cadence Allegro 23.1-P001*
G04 Origin Date:  Sat Mar 15 19:12:16 2025*
G04 *
G04 Layer:  VIA CLASS/TOP*
G04 Layer:  PIN/TOP*
G04 Layer:  ETCH/TOP*
G04 Layer:  BOARD GEOMETRY/DESIGN_OUTLINE*
G04 *
G04 Offset:    (0.0000 0.0000)*
G04 Mirror:    No*
G04 Mode:      Positive*
G04 Rotation:  0*
G04 FullContactRelief:  No*
G04 UndefLineWidth:     0.1000*
G04 ================== end FILE IDENTIFICATION RECORD ====================*
%FSLAX25Y25*MOMM*%
%IR0*IPPOS*OFA0.00000B0.00000*MIA0B0*SFA1.00000B1.00000*%
%ADD28R,.7X1.6*%
%ADD18R,1.5X.9*%
%ADD19C,.5*%
%ADD37O,2.X1.3*%
%ADD24O,1.3X2.*%
%ADD38O,1.3X2.*%
%ADD36O,2.X1.3*%
%ADD10O,5.X2.*%
%ADD17O,1.5X2.*%
%ADD27R,1.2X2.2*%
%ADD35R,2.X1.6*%
%ADD39R,1.6X2.*%
%ADD12O,3.X3.8*%
%ADD11O,3.8X3.*%
%ADD32R,1.2X1.8*%
%ADD26R,1.6X1.5*%
%ADD29C,1.0001*%
%ADD25C,1.1*%
%ADD34C,3.0001*%
%ADD16C,5.*%
%ADD23C,1.5*%
%ADD22C,2.5*%
%ADD14C,1.6*%
%ADD30C,1.7*%
%ADD13R,2.X2.*%
%ADD21R,1.4X1.4*%
%ADD15R,1.5X1.5*%
%ADD33R,1.6X1.6*%
%ADD31R,1.7X1.7*%
%ADD20R,1.45X1.45*%
%ADD40C,.4*%
%ADD41C,.7*%
%ADD42C,1.*%
%ADD43C,.1*%
G75*
%LPD*%
G75*
G54D10*
X350000Y-6850000D03*
Y-6570000D03*
Y-6290000D03*
G54D20*
X995000Y-6200000D03*
X1225000D03*
X1775000D03*
X2005000D03*
X2825000D03*
X3055000D03*
X3745000D03*
X3975000D03*
X4675000D03*
X4905000D03*
X5585000D03*
X5815000D03*
X6505000D03*
X6735000D03*
X7425000D03*
X7655000D03*
G54D11*
X470000Y-5970000D03*
G54D21*
X805000Y-4790000D03*
X1035000D03*
X1570000Y-6525000D03*
Y-6755000D03*
X2480000Y-6525000D03*
Y-6755000D03*
X3400000Y-6525000D03*
Y-6755000D03*
X4320000Y-6525000D03*
Y-6755000D03*
X4955000Y-4620000D03*
X5005000Y-3860000D03*
X5240000Y-6525000D03*
Y-6755000D03*
X5185000Y-4620000D03*
X5235000Y-3860000D03*
X6170000Y-6525000D03*
Y-6755000D03*
X7090000Y-6525000D03*
Y-6755000D03*
G54D30*
X2355000Y-4870000D03*
X3980000Y-5590000D03*
G54D12*
X170000Y-5500000D03*
X770000D03*
G54D40*
G01X1973000Y-3818000D02*
Y-4170000D01*
X1933000Y-4210000D01*
X580000D01*
X260000Y-3890000D01*
Y-3086000D01*
G01Y-2578000D02*
X540000Y-2858000D01*
Y-3360860D01*
X1194190Y-4015050D01*
X1465000D01*
G01X1895000Y-2095000D02*
Y-1982300D01*
X1832700Y-1920000D01*
X1650140D01*
X1470000Y-2100140D01*
Y-2350000D01*
X1400000Y-2420000D01*
X356000D01*
X260000Y-2324000D01*
G01X350000Y-6570000D02*
X650000D01*
X835000Y-6755000D01*
X865000D01*
G01D02*
X1015000D01*
G01X1355000Y-6425000D02*
X1470000D01*
X1570000Y-6525000D01*
G01X1785000Y-2095000D02*
Y-2207700D01*
X1759140Y-2233560D01*
Y-2780860D01*
X1211000Y-3329000D01*
Y-3818000D01*
G01X1570000Y-6755000D02*
X1775000D01*
G01X2115000Y-2095000D02*
Y-3065000D01*
X1844000Y-3336000D01*
Y-3955990D01*
X1784940Y-4015050D01*
X1465000D01*
G01Y-3818000D02*
Y-4015050D01*
G01X1895000Y-2095000D02*
Y-2995000D01*
X1719000Y-3171000D01*
Y-3818000D01*
G01X2335000Y-2095000D02*
Y-3165000D01*
X1973000Y-3527000D01*
Y-3818000D01*
G01X2265000Y-6425000D02*
X2380000D01*
X2480000Y-6525000D01*
G01Y-6755000D02*
X2695000D01*
G01X3185000Y-6425000D02*
X3300000D01*
X3400000Y-6525000D01*
G01X3615000Y-6755000D02*
X3400000D01*
G01X4380000Y-4616000D02*
X4166000D01*
X3652000Y-4102000D01*
Y-2782000D01*
X3787000Y-2647000D01*
G01X4380000Y-3854000D02*
X4174000D01*
X3787000Y-3467000D01*
Y-2901000D01*
G01X4105000Y-6425000D02*
X4220000D01*
X4320000Y-6525000D01*
G01X4535000Y-6755000D02*
X4320000D01*
G01X4380000Y-4616000D02*
X4562800D01*
X4567300Y-4620500D01*
X4700000D01*
G01Y-3858500D02*
X4517200D01*
X4512700Y-3854000D01*
X4380000D01*
G01X4970000Y-5410000D02*
Y-5720000D01*
G01X4955000Y-4620000D02*
X4833200D01*
X4832700Y-4620500D01*
X4700000D01*
G01X5005000Y-3860000D02*
X4850630D01*
X4849130Y-3858500D01*
X4700000D01*
G01X5025000Y-6425000D02*
X5140000D01*
X5240000Y-6525000D01*
G01Y-6755000D02*
X5455000D01*
G01X5945000Y-6425000D02*
X6070000D01*
X6170000Y-6525000D01*
G01Y-6755000D02*
X6375000D01*
G01X7090000D02*
X7295000D01*
G01X6865000Y-6425000D02*
X6990000D01*
X7090000Y-6525000D01*
G54D31*
X2605000Y-4870000D03*
X3680000Y-5590000D03*
G54D13*
X203000Y-4630000D03*
X4700000Y-1318500D03*
X7690000Y-890000D03*
G54D22*
X830000Y-4010000D03*
Y-210000D03*
X2930000Y-4010000D03*
Y-210000D03*
G54D41*
G01X2005000Y-2095000D02*
Y-1845000D01*
G01X2225000Y-2095000D02*
Y-1983930D01*
X2268930Y-1940000D01*
X2650000D01*
X2675000Y-1965000D01*
G54D14*
X260000Y-2832000D03*
Y-2578000D03*
Y-2324000D03*
Y-1816000D03*
Y-2070000D03*
Y-1562000D03*
Y-1054000D03*
Y-1308000D03*
G54D23*
X1135000Y-5600000D03*
X3725000Y-4830000D03*
X3787000Y-2901000D03*
Y-2647000D03*
Y-2393000D03*
G54D32*
X2675000Y-1965000D03*
G54D42*
G01X260000Y-1054000D02*
X80000Y-1234000D01*
Y-2652000D01*
X260000Y-2832000D01*
G01X3410000Y-1056000D02*
X3386000D01*
X3030000Y-700000D01*
X614000D01*
X260000Y-1054000D01*
G01X1122260Y-1308000D02*
X260000D01*
G01X1355000Y-6921100D02*
X733800D01*
X662700Y-6850000D01*
X350000D01*
G01Y-6290000D02*
X700000D01*
X835000Y-6425000D01*
X865000D01*
G01X457000Y-4630000D02*
Y-4655000D01*
X592000Y-4790000D01*
X805000D01*
G01X995000Y-6200000D02*
Y-6295000D01*
X865000Y-6425000D01*
G01X1760000Y-5994280D02*
X1065720D01*
X995000Y-6065000D01*
Y-6200000D01*
G01X3395000Y-4985000D02*
X3077660Y-5302340D01*
X867330D01*
X770000Y-5399670D01*
Y-5500000D01*
G01X1035000Y-4790000D02*
Y-5020000D01*
X1135000Y-5120000D01*
X2355000D01*
X2605000Y-4870000D01*
G01X2270000Y-6921100D02*
X1355000D01*
G01D02*
Y-6755000D01*
G01X1225000Y-6200000D02*
X1170000Y-6255000D01*
Y-6600000D01*
X1325000Y-6755000D01*
X1355000D01*
G01X1220000Y-2280000D02*
Y-2162300D01*
X1215000Y-2157300D01*
Y-1990000D01*
G01X1122260Y-1308000D02*
X1215000Y-1400740D01*
Y-1990000D01*
G01X1125000Y-1035000D02*
X1247700D01*
X1402040Y-1189340D01*
X2570660D01*
X2675000Y-1085000D01*
Y-1035000D01*
G01X1125000D02*
Y-1305260D01*
X1122260Y-1308000D01*
G01X1760000Y-5994280D02*
Y-6185000D01*
X1775000Y-6200000D01*
G01X2850000Y-5994280D02*
X1760000D01*
G01X2005000Y-6200000D02*
Y-6632700D01*
X2127300Y-6755000D01*
X2265000D01*
G01X1775000Y-6200000D02*
Y-6425000D01*
G01X2005000Y-1845000D02*
X2080000Y-1770000D01*
X3410000D01*
G01X3180000Y-6921100D02*
X2270000D01*
G01X2265000Y-6755000D02*
Y-6916100D01*
X2270000Y-6921100D01*
G01X2227000Y-3818000D02*
Y-4492000D01*
X2605000Y-4870000D01*
G01X3725000Y-4830000D02*
X3405000Y-4510000D01*
X2680000D01*
X2481000Y-4311000D01*
Y-3818000D01*
G01X3059000Y-2139000D02*
Y-2440000D01*
X2481000Y-3018000D01*
Y-3818000D01*
G01X2825000Y-6200000D02*
Y-6019280D01*
X2850000Y-5994280D01*
G01X2695000Y-6425000D02*
Y-6330000D01*
X2825000Y-6200000D01*
G01X3059000Y-2139000D02*
X2885000Y-1965000D01*
X2675000D01*
G01X4100000Y-6921100D02*
X3180000D01*
G01X3185000Y-6755000D02*
Y-6916100D01*
X3180000Y-6921100D01*
G01X3185000Y-6755000D02*
X3155000D01*
X3020000Y-6620000D01*
Y-6235000D01*
X3055000Y-6200000D01*
G01X3270000Y-6170000D02*
X3240000Y-6200000D01*
X3055000D01*
G01X3680000Y-5994280D02*
X2850000D01*
G01X3410000Y-1770000D02*
Y-2153700D01*
X3649300Y-2393000D01*
X3787000D01*
G01X3410000Y-1770000D02*
Y-1056000D01*
G01X5460000Y-3860000D02*
X5367700Y-3767700D01*
Y-3764020D01*
X4910000Y-3306320D01*
Y-1156000D01*
X4810000Y-1056000D01*
X3410000D01*
G01X4105000Y-6755000D02*
X4075000D01*
X3940000Y-6620000D01*
Y-6235000D01*
X3975000Y-6200000D01*
G01X3745000D02*
Y-6019280D01*
X3770000Y-5994280D01*
G01X3615000Y-6425000D02*
Y-6330000D01*
X3745000Y-6200000D01*
G01X3680000Y-5590000D02*
Y-5994280D01*
G01X3770000D02*
X3680000D01*
G01X4670000D02*
X3770000D01*
G01X3725000Y-4830000D02*
Y-5335000D01*
X3980000Y-5590000D01*
G01X4380000Y-1568000D02*
X4012000D01*
X3790000Y-1790000D01*
Y-2139000D01*
G01X5030000Y-6921100D02*
X4100000D01*
G01X4105000Y-6755000D02*
Y-6916100D01*
X4100000Y-6921100D01*
G01X4535000Y-6425000D02*
Y-6340000D01*
X4675000Y-6200000D01*
G01X6630000Y-5840000D02*
X4632300D01*
X4510000Y-5717700D01*
Y-5600000D01*
G01X5025000Y-6755000D02*
Y-6916100D01*
X5030000Y-6921100D01*
G01X5025000Y-6755000D02*
X4995000D01*
X4860000Y-6620000D01*
Y-6245000D01*
X4905000Y-6200000D01*
G01X4675000D02*
Y-5999280D01*
X4670000Y-5994280D01*
G01X5590000D02*
X4670000D01*
G01X5950000Y-6921100D02*
X5030000D01*
G01X5235000Y-3860000D02*
Y-4437300D01*
X5185000Y-4487300D01*
Y-4620000D01*
G01X5235000Y-3860000D02*
X5460000D01*
G01X5585000Y-6200000D02*
Y-5999280D01*
X5590000Y-5994280D01*
G01X5455000Y-6425000D02*
Y-6330000D01*
X5585000Y-6200000D01*
G01X5590000Y-5994280D02*
X5592460Y-5991820D01*
X6432020D01*
G01X7216820D02*
X6930000Y-5705000D01*
Y-4060000D01*
X6730000Y-3860000D01*
X5460000D01*
G01X6860000Y-6921100D02*
X5950000D01*
G01X5945000Y-6755000D02*
Y-6916100D01*
X5950000Y-6921100D01*
G01X5945000Y-6755000D02*
X5915000D01*
X5780000Y-6620000D01*
Y-6235000D01*
X5815000Y-6200000D01*
G01X6375000Y-6425000D02*
Y-6330000D01*
X6505000Y-6200000D01*
G01X6432020Y-5991820D02*
X6505000Y-6064800D01*
Y-6200000D01*
G01X6432020Y-5991820D02*
X7216820D01*
G01X6865000Y-6755000D02*
X6835000D01*
X6700000Y-6620000D01*
Y-6235000D01*
X6735000Y-6200000D01*
G01X7755000Y-6755000D02*
X7588900Y-6921100D01*
X6860000D01*
G01X6865000Y-6755000D02*
Y-6916100D01*
X6860000Y-6921100D01*
G01X7010000Y-3400000D02*
Y-1294290D01*
X7414290Y-890000D01*
X7690000D01*
G01X7295000Y-6425000D02*
Y-6330000D01*
X7425000Y-6200000D01*
G01X7216820Y-5991820D02*
X7425000Y-6200000D01*
G01X7755000Y-6755000D02*
X7620000Y-6620000D01*
Y-6235000D01*
X7655000Y-6200000D01*
G01X7785000Y-6755000D02*
X7755000D01*
G01X8044000Y-3810000D02*
X7916300D01*
X7771840Y-3954460D01*
Y-6083160D01*
X7655000Y-6200000D01*
G54D33*
X3790000Y-2139000D03*
G54D15*
X260000Y-3086000D03*
X1685000Y-5600000D03*
X3175000Y-4830000D03*
G54D24*
X1211000Y-3818000D03*
X1719000D03*
X1465000D03*
X1973000D03*
X2481000D03*
X2227000D03*
G54D43*
G01X8500000Y-7000000D02*
Y0D01*
X0D01*
Y-7000000D01*
X8500000D01*
G54D16*
X260000Y-260000D03*
X8240000Y-6740000D03*
X8150000Y-5400000D03*
Y-1700000D03*
X8240000Y-260000D03*
G54D34*
X4742000Y-5217500D03*
Y-522500D03*
X7193000Y-5217500D03*
Y-522500D03*
G54D25*
X1220000Y-2280000D03*
X3059000Y-2139000D03*
X3270000Y-6170000D03*
X3395000Y-4985000D03*
X4510000Y-5600000D03*
X6630000Y-5840000D03*
X7010000Y-3400000D03*
G54D26*
X1215000Y-1990000D03*
G54D35*
X4380000Y-4870000D03*
X7570000D03*
G54D17*
X457000Y-4630000D03*
X7960000Y-890000D03*
X8230000D03*
G54D27*
X1125000Y-1035000D03*
X2675000D03*
G54D36*
X4700000Y-4874500D03*
Y-4620500D03*
Y-4366500D03*
Y-4112500D03*
Y-3858500D03*
Y-3604500D03*
Y-3350500D03*
Y-3096500D03*
Y-2842500D03*
Y-2588500D03*
Y-2334500D03*
Y-2080500D03*
Y-1826500D03*
Y-1572500D03*
X7240000Y-4874500D03*
Y-4366500D03*
Y-4620500D03*
Y-4112500D03*
Y-3604500D03*
Y-3858500D03*
Y-3350500D03*
Y-2842500D03*
Y-3096500D03*
Y-2588500D03*
Y-2334500D03*
Y-1826500D03*
Y-2080500D03*
Y-1572500D03*
Y-1318500D03*
G54D18*
X865000Y-6755000D03*
Y-6425000D03*
X1355000Y-6755000D03*
Y-6425000D03*
X1775000Y-6755000D03*
Y-6425000D03*
X2265000Y-6755000D03*
Y-6425000D03*
X2695000Y-6755000D03*
Y-6425000D03*
X3185000Y-6755000D03*
Y-6425000D03*
X3615000Y-6755000D03*
Y-6425000D03*
X4105000Y-6755000D03*
Y-6425000D03*
X4535000Y-6755000D03*
Y-6425000D03*
X5025000Y-6755000D03*
Y-6425000D03*
X5455000Y-6755000D03*
Y-6425000D03*
X5945000Y-6755000D03*
Y-6425000D03*
X6375000Y-6755000D03*
Y-6425000D03*
X6865000Y-6755000D03*
Y-6425000D03*
X7295000Y-6755000D03*
Y-6425000D03*
X7785000Y-6755000D03*
Y-6425000D03*
G54D37*
X4380000Y-4362000D03*
Y-4616000D03*
Y-4108000D03*
Y-3600000D03*
Y-3854000D03*
Y-3346000D03*
Y-2838000D03*
Y-3092000D03*
Y-2584000D03*
Y-2330000D03*
Y-1822000D03*
Y-2076000D03*
Y-1568000D03*
Y-1314000D03*
X7570000Y-4362000D03*
Y-4616000D03*
Y-4108000D03*
Y-3600000D03*
Y-3854000D03*
Y-3346000D03*
Y-2838000D03*
Y-3092000D03*
Y-2584000D03*
Y-2330000D03*
Y-1822000D03*
Y-2076000D03*
Y-1568000D03*
Y-1314000D03*
G54D19*
X1015000Y-6755000D03*
X4970000Y-5720000D03*
Y-5410000D03*
G54D28*
X1675000Y-2095000D03*
X2115000D03*
X2005000D03*
X1895000D03*
X1785000D03*
X2445000D03*
X2335000D03*
X2225000D03*
X2555000D03*
G54D29*
X1595000Y-995000D03*
X2395000D03*
G54D38*
X8044000Y-4064000D03*
Y-3810000D03*
Y-3556000D03*
Y-3302000D03*
G54D39*
Y-3048000D03*
M02*
